<svg width="48" height="48" viewBox="0 0 48 48" fill="none" xmlns="http://www.w3.org/2000/svg">
<g clip-path="url(#clip0_57_996)">
<path d="M33.0064 28.5061H20.9437C13.8136 28.5061 13.79 28.5061 13.7776 28.5061C12.3349 28.4622 10.9579 27.8932 9.90505 26.9058C8.85222 25.9184 8.19605 24.5807 8.05975 23.1438C7.92345 21.7068 8.3164 20.2696 9.16481 19.1018C10.0132 17.9342 11.2587 17.1163 12.6674 16.802C12.5149 15.8619 12.6621 14.8976 13.0883 14.0459C13.5144 13.1942 14.1979 12.4982 15.0418 12.0567C15.8857 11.6152 16.8471 11.4505 17.7898 11.5861C18.7325 11.7216 19.6086 12.1504 20.2939 12.8118C21.1309 10.9713 22.6183 9.50497 24.4706 8.69437C26.3228 7.88377 28.4092 7.78606 30.3291 8.42C32.249 9.05394 33.867 10.3748 34.8724 12.129C35.8777 13.8832 36.1995 15.9469 35.776 17.9239C36.9427 18.2141 37.9787 18.8864 38.719 19.8337C39.4593 20.781 39.8613 21.9488 39.8609 23.151C39.8634 23.8521 39.727 24.5467 39.4595 25.1948C39.1919 25.8428 38.7985 26.4314 38.302 26.9264C37.3025 27.9275 35.9491 28.4949 34.5345 28.5061H33.0064ZM20.9443 27.8531H34.528C35.7712 27.8429 36.9605 27.3442 37.839 26.4647C38.275 26.0303 38.6204 25.5137 38.8554 24.945C39.0904 24.3762 39.2101 23.7664 39.2078 23.151C39.2091 22.0418 38.8207 20.9674 38.1103 20.1155C37.4 19.2635 36.4129 18.6883 35.3215 18.4901C35.2773 18.4821 35.2352 18.4651 35.1979 18.4401C35.1606 18.4151 35.1289 18.3827 35.1047 18.3449C35.0805 18.3071 35.0643 18.2647 35.0572 18.2203C35.0501 18.176 35.0523 18.1307 35.0635 18.0872C35.5476 16.2186 35.2974 14.2356 34.3641 12.5459C33.4308 10.8563 31.8855 9.58854 30.0461 9.00341C28.2066 8.41829 26.2129 8.5603 24.475 9.40023C22.737 10.2402 21.387 11.7142 20.7027 13.519C20.6824 13.5726 20.6484 13.6198 20.6041 13.656C20.5597 13.6923 20.5067 13.7162 20.4502 13.7255C20.3937 13.7348 20.3357 13.729 20.2822 13.7088C20.2286 13.6886 20.1813 13.6547 20.145 13.6105C19.5885 12.9289 18.817 12.4567 17.9568 12.2712C17.0968 12.0858 16.1991 12.1982 15.4113 12.5899C14.6235 12.9817 13.9921 13.6296 13.6209 14.4273C13.2497 15.225 13.1605 16.1252 13.3682 16.9802C13.3787 17.024 13.38 17.0694 13.3722 17.1137C13.3643 17.1579 13.3474 17.2001 13.3225 17.2376C13.2977 17.2749 13.2655 17.3068 13.2278 17.3312C13.1902 17.3556 13.1479 17.372 13.1037 17.3793C11.8077 17.5882 10.6364 18.2732 9.81877 19.3001C9.00114 20.3271 8.59608 21.6221 8.68281 22.9319C8.76954 24.2417 9.34183 25.472 10.2877 26.3822C11.2336 27.2923 12.4851 27.8168 13.7972 27.8531H20.9443Z" fill="black"/>
<path d="M15.4606 17.8488C15.3877 17.8488 15.3169 17.8245 15.2594 17.7796C14.7135 17.3525 13.4857 17.3629 13.0593 17.4041C12.9727 17.4122 12.8864 17.3856 12.8194 17.3302C12.7524 17.2746 12.7102 17.1948 12.702 17.1082C12.6939 17.0216 12.7205 16.9354 12.776 16.8684C12.8314 16.8014 12.9113 16.7592 12.9979 16.751C13.3239 16.7259 13.6513 16.7248 13.9775 16.7478C14.7233 16.8007 15.2895 16.9737 15.6597 17.2637C15.7133 17.3055 15.7525 17.3631 15.7718 17.4282C15.7911 17.4935 15.7896 17.563 15.7674 17.6274C15.7453 17.6916 15.7036 17.7474 15.6483 17.7868C15.5929 17.8263 15.5266 17.8475 15.4586 17.8475L15.4606 17.8488Z" fill="black"/>
<path d="M32.0039 18.7827C31.9279 18.7827 31.8542 18.7562 31.7956 18.7078C31.7371 18.6593 31.6972 18.592 31.683 18.5173C31.6688 18.4426 31.681 18.3653 31.7177 18.2988C31.7543 18.2322 31.813 18.1804 31.8837 18.1525C33.63 17.4629 35.4847 17.8514 35.5631 17.8684C35.605 17.8775 35.6448 17.8947 35.6801 17.9191C35.7153 17.9435 35.7455 17.9746 35.7687 18.0106C35.792 18.0467 35.8079 18.087 35.8156 18.1292C35.8233 18.1714 35.8226 18.2147 35.8135 18.2567C35.8045 18.2986 35.7873 18.3384 35.7629 18.3736C35.7384 18.4089 35.7074 18.4391 35.6713 18.4623C35.6353 18.4856 35.595 18.5015 35.5528 18.5091C35.5105 18.5168 35.4672 18.5162 35.4253 18.5071C35.4077 18.5032 33.6816 18.1447 32.1234 18.7598C32.0854 18.775 32.0449 18.7828 32.0039 18.7827Z" fill="black"/>
<path d="M20.2005 23.2816C18.0225 23.2816 18.0225 21.1494 18.0225 20.4487C18.0225 19.3816 18.0225 17.1605 20.2566 17.1605C20.9397 17.1605 21.4655 17.3564 21.8201 17.7371C22.3138 18.2687 22.2668 18.9629 22.2648 18.9923C22.2585 19.0789 22.2182 19.1595 22.1525 19.2163C22.0869 19.2731 22.0014 19.3016 21.9148 19.2953C21.8282 19.2891 21.7476 19.2487 21.6908 19.1831C21.634 19.1175 21.6055 19.0319 21.6117 18.9453C21.6117 18.9316 21.632 18.4921 21.3348 18.176C21.1082 17.935 20.7471 17.8136 20.2547 17.8136C18.9322 17.8136 18.6736 18.7794 18.6736 20.4487C18.6736 21.9971 19.1157 22.6286 20.1985 22.6286C21.5497 22.6286 21.7228 21.9507 21.7228 21.3603C21.7228 21.2737 21.7572 21.1907 21.8184 21.1294C21.8796 21.0682 21.9627 21.0338 22.0493 21.0338C22.1359 21.0338 22.219 21.0682 22.2802 21.1294C22.3414 21.1907 22.3758 21.2737 22.3758 21.3603C22.3778 22.2367 22.0003 23.2816 20.2005 23.2816Z" fill="black"/>
<path d="M30.8918 23.17H28.8901C28.8249 23.1698 28.7613 23.1502 28.7073 23.1136C28.6533 23.077 28.6116 23.025 28.5874 22.9644C28.5633 22.9039 28.5578 22.8375 28.5717 22.7738C28.5856 22.7101 28.6183 22.652 28.6655 22.607C28.719 22.5561 29.9794 21.3584 30.2981 21.0743C30.4232 20.9688 30.5045 20.8205 30.526 20.6583C30.526 20.6478 30.526 20.6374 30.526 20.6269C30.5283 20.5149 30.4892 20.4058 30.4163 20.3206C30.2857 20.1848 30.0545 20.1561 29.8802 20.1561C29.6405 20.1561 29.4642 20.2129 29.3577 20.3246C29.265 20.4339 29.2149 20.5731 29.2167 20.7164C29.2218 20.8025 29.1928 20.8872 29.1357 20.9519C29.0787 21.0166 28.9984 21.0562 28.9123 21.0619C28.8694 21.0647 28.8263 21.059 28.7856 21.0452C28.7448 21.0312 28.7072 21.0094 28.6749 20.981C28.6426 20.9526 28.6163 20.9179 28.5974 20.8793C28.5785 20.8406 28.5674 20.7986 28.5649 20.7556C28.5518 20.4349 28.664 20.1219 28.8777 19.8824C29.1135 19.631 29.4511 19.5037 29.8815 19.5037C30.3295 19.5037 30.6736 19.6343 30.9048 19.8864C31.0954 20.1036 31.1939 20.3866 31.1791 20.6753C31.1671 20.8451 31.1216 21.0108 31.0451 21.163C30.9686 21.3151 30.8628 21.4505 30.7337 21.5615C30.5633 21.7136 30.0983 22.1492 29.7104 22.5175H30.8924C30.979 22.5175 31.0621 22.552 31.1233 22.6132C31.1845 22.6744 31.2189 22.7575 31.2189 22.8441C31.2189 22.9307 31.1845 23.0137 31.1233 23.075C31.0621 23.1362 30.979 23.1706 30.8924 23.1706L30.8918 23.17Z" fill="black"/>
<path d="M25.3773 23.2816C23.665 23.2816 23.2124 21.8658 23.2124 21.1167V19.2751C23.2124 19.2535 23.2372 17.1109 25.3773 17.1109C27.0896 17.1109 27.5422 18.5267 27.5422 19.2751V21.1135C27.5422 21.8625 27.0896 23.2816 25.3773 23.2816ZM25.3773 17.7672C23.9197 17.7672 23.8668 19.1249 23.8655 19.2797V21.1135C23.8655 21.2669 23.9197 22.6253 25.3773 22.6253C26.8349 22.6253 26.8872 21.2702 26.8891 21.1128V19.2751C26.8878 19.1216 26.8349 17.7639 25.3773 17.7639V17.7672Z" fill="black"/>
<path d="M13.7267 40C13.6727 40 13.6196 39.9867 13.5721 39.9611C13.5246 39.9356 13.4841 39.8987 13.4544 39.8537C13.0313 39.1957 12.8561 38.4087 12.96 37.6333C13.0253 37.1559 13.2291 36.7373 13.4296 36.3331C13.4857 36.2188 13.5393 36.1104 13.5895 36.002C13.8176 35.523 13.8627 34.9772 13.7162 34.4673C13.6362 34.2158 13.54 33.9697 13.4282 33.7306C13.3309 33.5092 13.2323 33.2807 13.1507 33.0397C12.9774 32.495 12.8921 31.9263 12.898 31.3548V29.8775C12.898 29.791 12.9324 29.7079 12.9936 29.6466C13.0548 29.5854 13.1379 29.551 13.2245 29.551C13.3111 29.551 13.3941 29.5854 13.4554 29.6466C13.5166 29.7079 13.551 29.791 13.551 29.8775V31.3548C13.5449 31.8573 13.6192 32.3575 13.7711 32.8366C13.841 33.0482 13.9311 33.2526 14.0264 33.4694C14.1497 33.735 14.2555 34.0083 14.3432 34.2877C14.5349 34.9483 14.4777 35.6562 14.1825 36.2775C14.129 36.3951 14.0709 36.512 14.0147 36.6256C13.8299 36.9985 13.6555 37.3512 13.6078 37.7208C13.5279 38.3395 13.6665 38.9665 13.9997 39.4939C14.0322 39.5431 14.0508 39.6001 14.0536 39.659C14.0563 39.7179 14.043 39.7765 14.0152 39.8284C13.9873 39.8804 13.9459 39.9238 13.8954 39.9542C13.8448 39.9845 13.787 40.0005 13.728 40.0007L13.7267 40Z" fill="black"/>
<path d="M11.4488 31.921C11.3842 31.921 11.321 31.9018 11.2673 31.8659C11.2136 31.8299 11.1718 31.7789 11.1471 31.7192C11.1224 31.6595 11.116 31.5938 11.1287 31.5305C11.1414 31.4671 11.1725 31.4089 11.2183 31.3633L12.9913 29.5902C13.0526 29.529 13.1356 29.4946 13.2222 29.4946C13.3088 29.4946 13.3918 29.529 13.4531 29.5902L15.2261 31.3633C15.2856 31.4249 15.3185 31.5073 15.3177 31.593C15.317 31.6786 15.2827 31.7605 15.2221 31.821C15.1616 31.8815 15.0797 31.9159 14.9941 31.9166C14.9085 31.9174 14.826 31.8845 14.7644 31.825L13.2245 30.2831L11.68 31.825C11.6497 31.8554 11.6136 31.8795 11.574 31.896C11.5343 31.9125 11.4918 31.921 11.4488 31.921Z" fill="black"/>
<path d="M28.049 40C27.9949 40.0001 27.9417 39.9868 27.8941 39.9613C27.8464 39.9357 27.8058 39.8988 27.776 39.8537C27.3531 39.1956 27.1782 38.4086 27.2823 37.6333C27.3443 37.1559 27.5513 36.7373 27.7512 36.3331C27.808 36.2188 27.8615 36.1104 27.9112 36.002C28.1394 35.5231 28.1847 34.9772 28.0385 34.4673C27.9586 34.2153 27.8624 33.9688 27.7505 33.7293C27.6532 33.5079 27.5546 33.2793 27.473 33.0384C27.2993 32.4931 27.2137 31.9237 27.2196 31.3515V29.8775C27.2196 29.791 27.254 29.7079 27.3152 29.6466C27.3764 29.5854 27.4595 29.551 27.5461 29.551C27.6327 29.551 27.7158 29.5854 27.777 29.6466C27.8382 29.7079 27.8726 29.791 27.8726 29.8775V31.3548C27.8669 31.8572 27.9412 32.3575 28.0927 32.8366C28.1626 33.0482 28.2527 33.2532 28.3481 33.47C28.4714 33.7354 28.5772 34.0085 28.6648 34.2877C28.8568 34.948 28.8003 35.6559 28.5061 36.2775C28.4519 36.3951 28.3938 36.512 28.3376 36.6256C28.1535 36.9985 27.9791 37.3512 27.9308 37.7208C27.8505 38.3395 27.9891 38.9667 28.3226 39.4939C28.3551 39.5432 28.3735 39.6003 28.3761 39.6593C28.3787 39.7183 28.3652 39.7768 28.3372 39.8288C28.3091 39.8807 28.2674 39.924 28.2167 39.9542C28.1659 39.9843 28.108 40.0002 28.049 40Z" fill="black"/>
<path d="M29.3192 31.921C29.2762 31.921 29.2337 31.9125 29.194 31.896C29.1543 31.8795 29.1183 31.8554 29.088 31.825L27.5461 30.2831L26.0036 31.825C25.942 31.8845 25.8595 31.9174 25.7739 31.9166C25.6883 31.9159 25.6064 31.8815 25.5458 31.821C25.4853 31.7605 25.451 31.6786 25.4502 31.593C25.4495 31.5073 25.4824 31.4249 25.5419 31.3633L27.3149 29.5902C27.3762 29.529 27.4592 29.4946 27.5458 29.4946C27.6324 29.4946 27.7154 29.529 27.7766 29.5902L29.551 31.3633C29.5967 31.4089 29.6279 31.4671 29.6406 31.5305C29.6533 31.5938 29.6469 31.6595 29.6222 31.7192C29.5975 31.7789 29.5556 31.8299 29.502 31.8659C29.4482 31.9018 29.3851 31.921 29.3205 31.921H29.3192Z" fill="black"/>
<path d="M20.8888 40C20.8349 40 20.7818 39.9867 20.7342 39.9611C20.6867 39.9356 20.6463 39.8987 20.6165 39.8537C20.1932 39.1958 20.0179 38.4087 20.1221 37.6333C20.1842 37.1559 20.3912 36.7373 20.591 36.3331C20.6478 36.2188 20.7014 36.1104 20.751 36.002C20.9796 35.5231 21.0249 34.9772 20.8784 34.4673C20.7984 34.2153 20.7022 33.9688 20.5904 33.7293C20.4931 33.5079 20.3944 33.2787 20.3128 33.0384C20.1394 32.4931 20.0541 31.9237 20.0601 31.3515V29.8775C20.0601 29.791 20.0945 29.7079 20.1557 29.6466C20.2169 29.5854 20.3 29.551 20.3866 29.551C20.4732 29.551 20.5563 29.5854 20.6175 29.6466C20.6787 29.7079 20.7131 29.791 20.7131 29.8775V31.3548C20.7065 31.8571 20.78 32.3573 20.9306 32.8366C21.0005 33.0475 21.0906 33.2526 21.186 33.4694C21.3097 33.7349 21.4158 34.0082 21.5033 34.2877C21.695 34.9481 21.6385 35.6558 21.3447 36.2775C21.2911 36.3951 21.233 36.512 21.1768 36.6256C20.992 36.9985 20.8176 37.3512 20.77 37.7208C20.6893 38.3395 20.8279 38.9668 21.1618 39.4939C21.1943 39.5431 21.213 39.6001 21.2157 39.659C21.2184 39.7179 21.2052 39.7765 21.1773 39.8284C21.1495 39.8804 21.108 39.9238 21.0575 39.9542C21.0069 39.9845 20.9491 40.0005 20.8901 40.0007L20.8888 40Z" fill="black"/>
<path d="M22.1571 31.921C22.0705 31.9208 21.9876 31.8862 21.9265 31.825L20.384 30.2831L18.8408 31.825C18.7792 31.8845 18.6968 31.9174 18.6111 31.9166C18.5255 31.9159 18.4436 31.8815 18.3831 31.821C18.3226 31.7605 18.2882 31.6786 18.2875 31.5929C18.2867 31.5073 18.3196 31.4248 18.3791 31.3633L20.1522 29.5902C20.1825 29.5598 20.2185 29.5357 20.2582 29.5192C20.2979 29.5028 20.3404 29.4943 20.3834 29.4943C20.4263 29.4943 20.4688 29.5028 20.5085 29.5192C20.5482 29.5357 20.5842 29.5598 20.6145 29.5902L22.3876 31.3633C22.4334 31.4089 22.4646 31.4672 22.4772 31.5306C22.4899 31.594 22.4834 31.6598 22.4587 31.7195C22.4339 31.7792 22.3919 31.8303 22.3382 31.8661C22.2844 31.902 22.2211 31.9211 22.1564 31.921H22.1571Z" fill="black"/>
<path d="M35.2124 40C35.1585 40 35.1054 39.9867 35.0578 39.9611C35.0103 39.9356 34.9699 39.8987 34.9401 39.8537C34.5171 39.1957 34.3418 38.4087 34.4457 37.6333C34.5078 37.1559 34.7148 36.7373 34.9153 36.3324C34.9714 36.2181 35.025 36.1104 35.0753 36.002C35.3033 35.523 35.3484 34.9772 35.202 34.4673C35.122 34.2153 35.0258 33.9688 34.914 33.7293C34.8167 33.5079 34.7181 33.2793 34.6364 33.0384C34.4633 32.4942 34.378 31.9258 34.3837 31.3548V29.8775C34.3837 29.791 34.4181 29.7079 34.4794 29.6466C34.5406 29.5854 34.6236 29.551 34.7102 29.551C34.7968 29.551 34.8799 29.5854 34.9411 29.6466C35.0023 29.7079 35.0368 29.791 35.0368 29.8775V31.3548C35.0307 31.8573 35.1049 32.3575 35.2568 32.8366C35.3267 33.0482 35.4168 33.2526 35.5122 33.4694C35.6354 33.735 35.7413 34.0083 35.8289 34.2877C36.0206 34.9483 35.9634 35.6562 35.6683 36.2775C35.6147 36.3951 35.5566 36.512 35.5004 36.6256C35.3156 36.9985 35.1412 37.3512 35.0936 37.7208C35.0133 38.3395 35.1519 38.9667 35.4854 39.4939C35.518 39.5431 35.5366 39.6002 35.5393 39.6592C35.542 39.7181 35.5287 39.7767 35.5008 39.8287C35.4728 39.8807 35.4313 39.9241 35.3807 39.9544C35.33 39.9847 35.2721 40.0007 35.2131 40.0007L35.2124 40Z" fill="black"/>
<path d="M36.4806 31.921C36.3941 31.9208 36.3112 31.8862 36.2501 31.825L34.7102 30.2831L33.1683 31.825C33.1067 31.8845 33.0242 31.9174 32.9386 31.9166C32.853 31.9159 32.7711 31.8815 32.7106 31.821C32.65 31.7605 32.6157 31.6786 32.615 31.593C32.6142 31.5073 32.6471 31.4249 32.7066 31.3633L34.4797 29.5902C34.5409 29.529 34.6239 29.4946 34.7105 29.4946C34.7971 29.4946 34.8801 29.529 34.9414 29.5902L36.7144 31.3633C36.7602 31.4089 36.7914 31.4672 36.804 31.5306C36.8167 31.594 36.8102 31.6598 36.7855 31.7195C36.7607 31.7792 36.7187 31.8303 36.665 31.8661C36.6112 31.902 36.5479 31.9211 36.4833 31.921H36.4806Z" fill="black"/>
</g>
<defs>
<clipPath id="clip0_57_996">
<rect width="31.8694" height="32" fill="white" transform="translate(8 8)"/>
</clipPath>
</defs>
</svg>
