<svg width="48" height="48" viewBox="0 0 48 48" fill="none" xmlns="http://www.w3.org/2000/svg">
<g clip-path="url(#clip0_57_1028)">
<mask id="mask0_57_1028" style="mask-type:luminance" maskUnits="userSpaceOnUse" x="11" y="8" width="26" height="32">
<path d="M36.4247 8H11V39.7808H36.4247V8Z" fill="white"/>
</mask>
<g mask="url(#mask0_57_1028)">
<path d="M34.0268 26.6344H33.6499L30.8663 18.2224C30.8619 18.2136 30.8049 17.9243 30.5419 18.1216L27.9644 19.7742L27.2718 17.4026C27.2718 17.3983 27.1797 17.1484 26.9386 17.3018L25.023 18.9325L22.1605 14.4744C22.1211 14.4131 22.0553 14.3868 21.9764 14.378C21.9019 14.3824 21.8362 14.4218 21.8011 14.4876L18.1583 21.1944L16.0586 19.8048C16.0016 19.7698 15.9359 19.761 15.8745 19.7829C15.8131 19.8048 15.7649 19.8574 15.7474 19.9188L13.7748 26.6388H13.3978C13.2838 26.6344 13.1918 26.7265 13.1918 26.8405C13.1918 26.9544 13.2838 27.0465 13.3978 27.0465H34.0225C34.1364 27.0465 34.2285 26.9544 34.2285 26.8405C34.2285 26.7265 34.1408 26.6344 34.0268 26.6344ZM30.6646 26.0295L29.126 25.0739C29.034 25.0169 28.9112 25.0388 28.8455 25.1309L27.7934 26.63H20.1879L21.2137 25.1703L22.9364 26.2399C23.0329 26.3013 23.16 26.2706 23.2214 26.1742C23.2827 26.0777 23.252 25.9506 23.1556 25.8892L21.2663 24.7188C21.1742 24.6618 21.0515 24.6837 20.9857 24.7758L19.6794 26.6344H17.6367L16.2559 20.4317L18.0619 21.6284L18.7896 23.3862L18.0619 24.4251C17.9962 24.5172 18.0181 24.6487 18.1145 24.7144C18.1496 24.7407 18.1934 24.7539 18.2329 24.7539C18.2986 24.7539 18.3644 24.7232 18.4038 24.6662L19.1666 23.5835C19.1929 23.5616 19.2148 23.5309 19.2279 23.4958L20.7446 21.3391L24.7863 23.8421C24.8827 23.9035 25.0099 23.8728 25.0712 23.7763C25.1326 23.6799 25.1019 23.5528 25.0055 23.4914L22.8575 22.1588L23.3923 21.3391L24.4093 21.9703C24.5057 22.0317 24.6329 22.001 24.6942 21.9046C24.7556 21.8081 24.7249 21.681 24.6285 21.6196L23.4405 20.8832C23.3441 20.8218 23.217 20.8525 23.1556 20.9446L22.5068 21.944L21.354 21.2295L22.1255 15.1889L24.8082 19.3709L25.9699 21.1813C26.0093 21.2426 26.0751 21.2777 26.1452 21.2777C26.154 21.2777 26.1671 21.2777 26.1759 21.2733C26.2592 21.2602 26.3249 21.1988 26.3425 21.1199L27.0877 18.2531L27.6488 20.1687L28.1529 21.9002L27.7145 22.5928L26.5616 21.8783C26.4696 21.8213 26.3468 21.8432 26.2811 21.9353L25.4219 23.1583C25.3562 23.2503 25.3781 23.3818 25.4745 23.4476C25.5096 23.4739 25.5534 23.487 25.5929 23.487C25.6586 23.487 25.7244 23.4563 25.7638 23.3994L26.509 22.3385L27.4909 22.9479L25.9085 25.4553C25.8471 25.5517 25.8778 25.6788 25.9742 25.7402C26.0093 25.7621 26.0488 25.7709 26.0838 25.7709C26.154 25.7709 26.2197 25.7358 26.2592 25.6744L30.6077 18.7747L31.892 22.6542L31.2783 22.2728C31.1863 22.2158 31.0636 22.2377 30.9978 22.3298L30.1737 23.5046C30.1079 23.5966 30.1299 23.7281 30.2263 23.7939C30.2614 23.8202 30.3052 23.8333 30.3447 23.8333C30.4104 23.8333 30.4762 23.8026 30.5156 23.7457L31.2257 22.7331L32.0674 23.2547C32.0762 23.2591 32.0849 23.2591 32.0893 23.2635L33.2071 26.6476H28.2975L29.0734 25.5342L30.4455 26.3846C30.5419 26.4459 30.669 26.4152 30.7304 26.3188C30.7918 26.218 30.7611 26.0909 30.6646 26.0295ZM20.7929 20.8744C20.7008 20.8174 20.5781 20.8394 20.5123 20.9314L19.0745 22.9829L18.4608 21.5013L21.6345 15.658L20.9594 20.9753L20.7929 20.8744ZM25.2466 19.2832L26.7019 18.0426L26.0531 20.5413L25.2466 19.2832ZM28.4466 21.4224L28.0871 20.1906L29.994 18.9676L28.4466 21.4224ZM15.914 20.8043L17.2115 26.6344H14.2044L15.914 20.8043Z" fill="black"/>
</g>
</g>
<defs>
<clipPath id="clip0_57_1028">
<rect width="25.4247" height="32" fill="white" transform="translate(11 8)"/>
</clipPath>
</defs>
</svg>
