<svg width="48" height="48" viewBox="0 0 48 48" fill="none" xmlns="http://www.w3.org/2000/svg">
<path d="M31.3951 12.8383C31.3324 12.8383 31.2721 12.8503 31.217 12.8728C31.1615 12.8954 31.1095 12.9298 31.0638 12.9743C31.0182 13.0187 30.9829 13.0694 30.9597 13.1235C30.9365 13.1774 30.9242 13.2362 30.9242 13.297V18.0893C30.9242 18.4238 30.8343 18.7413 30.6691 19.0172C30.5044 19.2924 30.2644 19.5251 29.9637 19.6907C29.746 19.8106 29.5439 19.9591 29.3629 20.1311C29.1829 20.302 29.0255 20.4952 28.8959 20.7056C28.7602 20.926 28.6578 21.1603 28.5895 21.4027C28.5209 21.646 28.4862 21.9014 28.4862 22.1629C28.4862 22.5421 28.562 22.9101 28.7061 23.2489C28.8498 23.5869 29.063 23.8988 29.3381 24.1668C29.6131 24.4347 29.9333 24.6424 30.2803 24.7824C30.6282 24.9228 31.0059 24.9967 31.3951 24.9967C31.7843 24.9967 32.162 24.9228 32.5098 24.7824C32.8567 24.6425 33.1768 24.4348 33.452 24.1668C33.7271 23.8987 33.9402 23.5868 34.0839 23.2489C34.228 22.91 34.3038 22.5421 34.3038 22.1629C34.3038 21.9014 34.2691 21.646 34.2005 21.4027C34.1322 21.1603 34.0298 20.926 33.8941 20.7056C33.7645 20.4952 33.607 20.302 33.4271 20.1311C33.2461 19.9591 33.0441 19.8106 32.8265 19.6908C32.5256 19.5252 32.2856 19.2926 32.1208 19.0174C31.9557 18.7417 31.8659 18.4242 31.8659 18.0893V13.297C31.8659 13.2359 31.8536 13.1772 31.8305 13.1235C31.8073 13.0694 31.772 13.0188 31.7263 12.9743C31.6806 12.9298 31.6286 12.8954 31.5731 12.8728C31.518 12.8503 31.4577 12.8383 31.3951 12.8383ZM29.8934 20.2918C29.9658 20.2143 30.089 20.2086 30.1685 20.2791C30.248 20.3496 30.2538 20.4696 30.1814 20.5471C29.6321 21.1332 29.3526 21.692 29.3431 22.2235C29.3337 22.7491 29.5898 23.2624 30.1114 23.763C30.188 23.8364 30.189 23.9564 30.1137 24.031C30.0384 24.1056 29.9152 24.1066 29.8387 24.0332C29.2378 23.4566 28.9431 22.8513 28.9545 22.2175C28.9657 21.5895 29.2787 20.9475 29.8934 20.2918ZM31.395 11.2766C31.7387 11.2766 32.0676 11.3439 32.3684 11.4657C32.68 11.5919 32.9609 11.7767 33.1962 12.0059L33.1966 12.0063L33.1969 12.0059C33.4318 12.2347 33.6216 12.5085 33.7514 12.8129C33.8764 13.106 33.9456 13.4265 33.9456 13.7613V18.3964C34.2105 18.5699 34.4554 18.7692 34.6762 18.9903C34.9222 19.2365 35.1393 19.5108 35.3222 19.8075C35.5322 20.1485 35.6969 20.5186 35.8081 20.9098C35.9161 21.2898 35.9739 21.6883 35.9739 22.0977C35.9739 22.7006 35.8503 23.2766 35.6266 23.8028C35.394 24.3499 35.054 24.8413 34.6327 25.2518C34.2114 25.6622 33.7068 25.9935 33.1453 26.2201C33.0834 26.245 33.0209 26.2687 32.9577 26.291C32.504 28.2494 31.507 29.9665 30.1501 31.3161C28.7395 32.719 26.9385 33.7239 24.954 34.1886C24.9445 34.1908 24.9349 34.1926 24.9254 34.1938V34.1942C23.4493 34.3883 22.0105 34.3603 20.6585 34.1334C18.3342 33.7433 16.2613 32.7649 14.6886 31.3148C13.1109 29.8601 12.039 27.9337 11.7231 25.6527C11.5733 24.5711 11.5933 23.4114 11.8099 22.1867C12.2263 19.832 13.4173 17.7962 15.0842 16.2848C16.7895 14.7387 18.9936 13.7414 21.3763 13.513L21.3798 13.5127L21.3797 13.5118C22.8143 13.3887 24.1937 13.548 25.4794 13.9277C26.6991 14.2878 27.8316 14.8463 28.8445 15.5499V13.7613C28.8445 13.4265 28.9137 13.106 29.0387 12.8129C29.1685 12.5085 29.3583 12.2346 29.5931 12.0059C29.828 11.7771 30.1091 11.5922 30.4216 11.4657C30.7224 11.3439 31.0514 11.2766 31.395 11.2766ZM32.3121 26.4685C32.0156 26.5274 31.7088 26.5583 31.3951 26.5583C30.7762 26.5583 30.185 26.438 29.6448 26.2201C29.0832 25.9935 28.5787 25.6622 28.1573 25.2518C28.1307 25.2258 28.1043 25.1995 28.0783 25.1728C27.9416 25.3363 27.7574 25.4703 27.558 25.6152C27.313 25.7932 27.0422 25.99 26.8437 26.2644C26.8147 26.3044 26.7639 26.4643 26.6943 26.6837C26.4488 27.4571 25.9916 28.8978 24.896 29.5819C24.3592 29.9171 24.0007 29.8176 23.759 29.4503C23.3983 28.9022 23.3992 27.6675 23.3999 26.5472C23.4005 25.5425 23.4011 24.6395 23.2314 24.6035C23.154 24.5871 23.0915 24.5255 23.0797 24.4446C23.065 24.344 23.0403 24.5293 22.9553 24.5044C22.5093 24.3733 21.6253 24.1136 21.1311 23.5682C20.5504 22.9274 20.5003 21.9465 22.2324 20.4542L22.2401 20.4473C22.2615 20.4293 22.2895 20.4139 22.3286 20.3923C22.3851 20.3611 22.4816 20.3078 22.5412 20.2674C22.4344 20.2791 22.338 20.2044 22.3258 20.1003C22.2259 19.2633 22.6109 19.2259 22.9546 19.1925C23.0057 19.1876 23.0555 19.1828 23.0907 19.1732C23.1386 19.1603 23.1583 19.0944 23.079 18.8161C23.0537 18.7272 23.0982 18.6313 23.1872 18.5926C23.3857 18.5058 23.5815 18.455 23.7667 18.4071C24.1066 18.3191 24.4039 18.242 24.5075 17.9444L24.5069 17.1817H24.5061C24.5061 16.9941 24.7718 16.8808 25.0358 16.7683C25.1886 16.7032 25.3406 16.6384 25.3444 16.6321C25.3667 16.5952 25.4018 16.5653 25.4465 16.5497L26.7745 16.0851C26.8309 16.0656 26.8957 16.0715 26.949 16.1067L27.7596 16.6426C27.7749 16.6513 27.7891 16.6623 27.802 16.6754C27.8761 16.7513 27.873 16.8713 27.7951 16.9434L27.3963 17.3147C27.4117 17.3197 27.4299 17.3248 27.4498 17.3299L27.4573 17.3316C27.5781 17.3614 27.7334 17.3677 27.8752 17.3644C28.058 17.3601 28.2181 17.3396 28.262 17.3323L28.8445 17.236V16.2571C27.7968 15.4722 26.6041 14.8531 25.3103 14.471C24.0972 14.1128 22.7919 13.9628 21.43 14.0797V14.0789C20.3079 14.1869 19.2277 14.4753 18.2266 14.9185C18.9641 14.9088 19.7932 15.1151 20.2664 15.9561L20.266 15.9564C20.2956 16.009 20.2991 16.0744 20.2695 16.1321C20.2365 16.1964 20.1968 16.2123 20.1282 16.2411C19.9952 16.2969 19.5867 16.4683 19.4162 16.599C19.3601 16.6473 19.2779 16.6617 19.2056 16.6292C18.8092 16.4496 18.3532 16.2798 17.9046 16.2169C17.5087 16.1613 17.1175 16.1891 16.7804 16.37C16.7847 16.3865 16.7884 16.4067 16.7903 16.434C16.9234 16.4941 17.0714 16.585 17.2123 16.6715C17.3571 16.7605 17.4932 16.8441 17.5563 16.8622L19.9823 17.2645C20.0106 17.2691 20.0382 17.2799 20.0631 17.2971C20.23 17.4134 20.0742 17.7102 19.9202 18.0035C19.8369 18.1619 19.7544 18.3191 19.7395 18.371C19.721 18.4743 19.6199 18.5434 19.5139 18.5254C19.1826 18.4681 18.9518 18.4211 18.8002 18.3902C18.7651 18.3831 18.7372 18.3766 18.7149 18.3711C18.675 18.4814 18.5759 18.6351 18.3074 18.8266C18.2318 18.8806 18.1249 18.8749 18.0559 18.8088C18.0217 18.7759 17.9545 18.7458 17.8688 18.7237C17.7506 18.6931 17.6081 18.6826 17.4711 18.7031C17.3458 18.7218 17.2287 18.7664 17.1486 18.8454C17.1035 18.8899 17.0686 18.9472 17.0489 19.0191C17.0291 19.0915 16.9661 19.1487 16.8851 19.1587C16.6907 19.1831 16.4967 19.3346 16.3339 19.5283C16.1134 19.7907 15.9598 20.1175 15.9286 20.3305C15.9262 20.3524 15.9197 20.3743 15.9089 20.3952C15.8605 20.4886 15.7435 20.5262 15.6475 20.4791C15.6321 20.4714 15.5219 20.451 15.4107 20.4304C15.2773 20.4057 15.1425 20.3808 15.0683 20.3483C14.9973 20.3189 14.9481 20.2498 14.9497 20.1701C14.9532 20.025 14.8968 19.9335 14.812 19.8898C14.7588 19.8624 14.6932 19.8493 14.622 19.8499C14.5443 19.8504 14.4601 19.8676 14.3765 19.9004C14.1437 19.992 13.9304 20.2045 13.8911 20.5193C13.8767 20.6352 14.1486 20.9889 14.4836 21.361C14.8719 21.7925 15.3319 22.2216 15.5526 22.3546L16.0758 22.0413L16.076 22.0418C16.1289 22.0102 16.1963 22.0037 16.2571 22.0302L17.3149 22.4898C17.3415 22.4998 17.3663 22.5158 17.3871 22.5375C17.8216 22.9941 18.2001 23.3565 18.5179 23.6607C20.1545 25.2274 20.3074 25.3739 18.2194 27.9925L18.2189 27.9921L18.2187 27.9925C18.1226 28.1126 18.0513 28.2221 17.9941 28.31C17.8129 28.5882 17.7317 28.713 17.4511 28.6621C17.4438 28.7216 17.434 28.7866 17.4234 28.8565C17.3443 29.3809 17.2123 30.2566 17.8115 30.4071C17.9155 30.4284 17.9829 30.5272 17.9625 30.6292C17.9583 30.6498 17.9512 30.6703 17.9413 30.6904C17.9381 30.6981 17.9342 30.7057 17.9298 30.7131C17.8499 30.8462 17.5837 30.9549 17.2949 31.0143C17.0317 31.0685 16.7336 31.0906 16.5525 31.0561C16.4946 31.0451 16.4435 31.028 16.4015 31.0041L16.4019 31.0035L16.4015 31.0034C15.7668 30.6414 15.6566 29.4051 15.6487 29.3041C15.5353 28.6772 15.5606 28.1434 15.5841 27.6478C15.6156 26.9849 15.6437 26.3945 15.3052 25.7751L15.2501 25.676C15.0039 25.2312 14.6001 24.5016 14.7605 24.0097L13.7945 22.9517C13.7819 22.9392 13.7709 22.9247 13.7621 22.9084C13.5201 22.4651 13.2594 21.8295 13.029 21.2676C12.9477 21.0695 12.8703 20.8807 12.7992 20.7142C12.6209 21.2172 12.4817 21.7409 12.3859 22.2825C12.1793 23.451 12.1596 24.5531 12.3014 25.577C12.5989 27.7242 13.6062 29.536 15.0886 30.9028C16.576 32.2742 18.5441 33.2008 20.7568 33.5722C22.0502 33.7893 23.4257 33.8166 24.8363 33.6322C26.7051 33.1913 28.4023 32.2419 29.7341 30.9174C30.9458 29.7123 31.8539 28.1957 32.3121 26.4685ZM27.817 24.8809C27.5507 24.5561 27.3296 24.1937 27.1634 23.8028C26.9397 23.2766 26.8162 22.7006 26.8162 22.0977C26.8162 21.6883 26.8739 21.2898 26.9819 20.9098C27.0932 20.5186 27.2579 20.1484 27.4678 19.8075C27.6507 19.5108 27.8678 19.2366 28.1137 18.9904C28.3346 18.7692 28.5795 18.5699 28.8445 18.3964V17.6208L28.3275 17.7064C28.2776 17.7148 28.0949 17.738 27.8844 17.743C27.7111 17.747 27.5185 17.7386 27.3613 17.6998L27.3522 17.6973C27.1456 17.6442 26.9892 17.5382 26.9558 17.3471C26.9529 17.3308 26.9512 17.3121 26.9506 17.2909C26.9493 17.2354 26.9727 17.1848 27.011 17.1493L27.3527 16.8309L26.8128 16.4739L25.6203 16.8911C25.5247 16.9736 25.3583 17.0445 25.1913 17.1157C25.0443 17.1784 24.8963 17.122 24.8963 17.1817H24.8955L24.8962 17.9745C24.8962 17.993 24.8934 18.0109 24.8883 18.0279C24.7305 18.5498 24.3279 18.6541 23.8657 18.7738C23.7444 18.8052 23.618 18.838 23.4946 18.8807C23.5854 19.3306 23.4306 19.4745 23.1943 19.5385C23.1274 19.5565 23.061 19.563 22.9927 19.5696C22.8512 19.5833 22.6944 19.5987 22.7032 19.9314C22.9427 20.0126 23.0062 20.1461 22.9742 20.2967C22.9322 20.4946 22.6553 20.6475 22.5206 20.7219C22.5009 20.7328 22.5028 20.727 22.4947 20.7339L22.4912 20.7367C20.9866 22.0326 20.9769 22.826 21.4222 23.3173C21.8423 23.7809 22.656 24.02 23.0666 24.1406C23.1861 24.1757 23.2832 24.2043 23.352 24.243C23.7898 24.3915 23.7892 25.4135 23.7885 26.5472C23.7878 27.6141 23.787 28.79 24.0867 29.2454C24.1991 29.4162 24.3854 29.4502 24.6857 29.2627C25.6621 28.653 26.0918 27.2992 26.3224 26.5724C26.4029 26.3188 26.4616 26.134 26.5252 26.0461C26.7605 25.7209 27.0568 25.5056 27.3248 25.3108C27.5281 25.1631 27.7133 25.0285 27.817 24.8809ZM34.3569 24.9831C34.7438 24.6061 35.0552 24.1569 35.267 23.6588C35.471 23.1789 35.5837 22.6516 35.5837 22.0977C35.5837 21.7202 35.5313 21.3557 35.4332 21.0107C35.3314 20.6529 35.1807 20.3142 34.9884 20.002C34.8215 19.7312 34.6228 19.4803 34.3973 19.2546C34.1753 19.0322 33.9281 18.8347 33.6607 18.6668C33.5981 18.6351 33.5554 18.5715 33.5554 18.4981V13.7613C33.5554 13.4767 33.4971 13.2054 33.3918 12.9584C33.2821 12.7014 33.121 12.4693 32.9211 12.2746L32.9215 12.2742C32.7219 12.08 32.4836 11.9232 32.219 11.8161C31.9655 11.7135 31.6871 11.6567 31.3951 11.6567C31.1029 11.6567 30.8245 11.7135 30.5709 11.8161C30.3071 11.9229 30.0689 12.0799 29.869 12.2746C29.6691 12.4693 29.508 12.7014 29.3983 12.9584C29.293 13.2054 29.2347 13.4767 29.2347 13.7613V15.8325V16.2755V18.4981H29.2339C29.2339 18.5605 29.2021 18.6216 29.144 18.6577C28.8709 18.8276 28.6187 19.0283 28.3926 19.2547C28.1672 19.4804 27.9685 19.7312 27.8016 20.002C27.6093 20.3142 27.4586 20.6529 27.3568 21.0107C27.2588 21.3557 27.2063 21.7202 27.2063 22.0977C27.2063 22.6516 27.319 23.1789 27.5231 23.6588C27.7349 24.1569 28.0462 24.6061 28.4332 24.9831C28.8202 25.3601 29.2813 25.6634 29.7926 25.8697C30.2853 26.0685 30.8265 26.1782 31.3951 26.1782C31.7469 26.1782 32.0883 26.1362 32.4142 26.057C33.2047 25.818 33.7498 25.5744 34.3569 24.9831ZM17.1954 15.4459C16.5814 15.8047 16.0068 16.2255 15.482 16.7013C14.4202 17.664 13.5627 18.852 12.9956 20.2057C13.1076 20.439 13.2427 20.7685 13.3902 21.1281C13.6112 21.667 13.8608 22.2756 14.0959 22.7107L15.134 23.8476C15.1949 23.9142 15.1987 24.011 15.149 24.0814C14.9777 24.3845 15.3646 25.0837 15.593 25.4964L15.6481 25.5969C16.0371 26.3089 16.0068 26.9473 15.9728 27.6641C15.95 28.1442 15.9254 28.6617 16.0338 29.2512C16.035 29.2582 16.0359 29.2652 16.0364 29.272H16.0368C16.037 29.2752 16.1154 30.401 16.5978 30.6766L16.5981 30.676C16.6016 30.6779 16.6117 30.6805 16.6272 30.6834C16.7591 30.7086 16.9967 30.6882 17.2157 30.6432C17.2653 30.633 17.3128 30.6222 17.3565 30.6114C16.8242 30.2174 16.9546 29.353 17.0378 28.8015C17.0643 28.6263 17.0847 28.4911 17.0788 28.4752C17.0426 28.3768 17.0951 28.2684 17.1961 28.2332C17.2405 28.2177 17.2868 28.2189 17.3279 28.2334C17.535 28.3061 17.5656 28.259 17.6649 28.1066C17.7238 28.0161 17.7973 27.9032 17.9121 27.7598L17.9116 27.7594C19.7872 25.4072 19.6554 25.2809 18.2452 23.9309C17.9291 23.6283 17.5539 23.2692 17.1286 22.8237L16.1929 22.4171L15.6661 22.7326C15.6088 22.7669 15.5405 22.7689 15.4835 22.7438C15.2431 22.6481 14.6549 22.1259 14.1909 21.6104C13.7931 21.1683 13.4747 20.7102 13.504 20.4747C13.5628 20.0039 13.8825 19.6859 14.2318 19.5486C14.3592 19.4985 14.4926 19.4722 14.6204 19.4713C14.7547 19.4703 14.883 19.4974 14.9934 19.5542C15.1689 19.6446 15.2958 19.8016 15.3296 20.0292L15.5911 20.0783C15.67 19.8296 15.8275 19.5311 16.0321 19.2878C16.2214 19.0626 16.455 18.8783 16.7134 18.8076C16.7529 18.7189 16.8068 18.6433 16.8712 18.5797C17.0169 18.4359 17.2119 18.3575 17.4133 18.3274C17.6029 18.2991 17.8018 18.314 17.9679 18.357C18.0472 18.3775 18.1207 18.4051 18.1846 18.4383C18.3427 18.3058 18.3519 18.2346 18.3568 18.1963C18.3711 18.0839 18.3794 18.0194 18.5314 17.9817C18.6051 17.9633 18.687 17.9799 18.8794 18.0191C18.9977 18.0431 19.1676 18.0778 19.4252 18.1239C19.4662 18.0369 19.5201 17.9343 19.5742 17.8313C19.6434 17.6994 19.8799 17.6824 19.8592 17.6288L17.4834 17.2349C17.4758 17.2337 17.4684 17.232 17.4611 17.2299C17.3408 17.1984 17.1783 17.0986 17.005 16.9922C16.8335 16.8868 16.6497 16.7739 16.5427 16.7464C16.4497 16.7225 16.3902 16.637 16.3983 16.5467H16.3979C16.4048 16.4686 16.4024 16.4614 16.4005 16.4556C16.3841 16.4064 16.3719 16.3698 16.4001 16.2248C16.4109 16.1688 16.4459 16.1231 16.4928 16.0963C16.9372 15.8184 17.4488 15.7696 17.9595 15.8412C18.4139 15.905 18.8662 16.0643 19.2659 16.239C19.4276 16.1363 19.6492 16.033 19.8104 15.9623C19.1424 15.0655 17.8246 15.2871 17.1954 15.4459ZM22.2704 17.3252L23.1519 16.6068C23.2343 16.5396 23.3572 16.5502 23.4262 16.6306C23.4312 16.6363 23.4357 16.6423 23.4398 16.6485L24.0299 17.524C24.0889 17.6118 24.0636 17.7294 23.9735 17.7868L23.9583 17.7956L22.737 18.4634C22.6432 18.5146 22.5244 18.482 22.4719 18.3906C22.4621 18.3737 22.4554 18.356 22.4513 18.3379L22.2087 17.5234C22.1865 17.449 22.2134 17.3722 22.2706 17.3254L22.2704 17.3252ZM23.2339 17.0346L22.6175 17.537L22.7601 18.0155L23.5894 17.5621L23.2339 17.0346ZM27.7169 27.2251C27.723 27.2376 27.8763 27.2872 28.0597 27.3465C28.3817 27.4506 28.7733 27.5773 28.9864 27.8391L28.9868 27.8388C29.0976 27.975 29.1139 28.1603 29.0858 28.3473C29.0444 28.6225 28.9035 28.9156 28.866 28.9878C28.5759 29.544 28.1968 29.6222 27.8406 29.4459C27.6675 29.3602 27.5073 29.2081 27.3746 29.0223C27.2484 28.8454 27.1438 28.6337 27.0753 28.4187C26.8983 27.8633 26.964 27.2829 27.4837 27.1257C27.5772 27.0977 27.6758 27.1417 27.7165 27.2253L27.7169 27.2251ZM27.9377 27.7058C27.7682 27.651 27.6162 27.6018 27.5075 27.5341C27.3374 27.6656 27.3456 27.9885 27.4472 28.3073C27.5035 28.484 27.59 28.6587 27.6947 28.8055C27.793 28.9431 27.904 29.0521 28.0158 29.1074C28.1749 29.1861 28.3566 29.1276 28.5185 28.8171C28.5497 28.757 28.6669 28.5139 28.7002 28.2923C28.7143 28.1981 28.7141 28.1144 28.682 28.0749L28.6824 28.0746L28.682 28.0742C28.5412 27.901 28.21 27.7939 27.9377 27.7058ZM30.993 12.3472C31.1193 12.2956 31.2555 12.2681 31.3951 12.2681C31.5347 12.2681 31.6708 12.2956 31.7972 12.3472C31.9251 12.3994 32.0416 12.4752 32.1401 12.5712C32.2386 12.6671 32.3164 12.7805 32.3701 12.9052C32.423 13.0284 32.4512 13.161 32.4512 13.297V18.0893C32.4512 18.3233 32.5128 18.5432 32.626 18.7323C32.7396 18.9221 32.905 19.0823 33.1122 19.1964C33.3771 19.3422 33.6198 19.5199 33.834 19.7235C34.0496 19.9283 34.2386 20.1604 34.3947 20.4139C34.557 20.6774 34.68 20.9596 34.7629 21.2534C34.8467 21.5507 34.8891 21.8562 34.8891 22.1629C34.8891 22.6143 34.7975 23.0555 34.6235 23.4649C34.4491 23.8751 34.1934 24.2506 33.8658 24.5699C33.538 24.8891 33.1526 25.1382 32.7315 25.308C32.3114 25.4776 31.8585 25.5668 31.3951 25.5668C30.9317 25.5668 30.4788 25.4775 30.0585 25.308C29.6374 25.1381 29.2519 24.8891 28.9243 24.5699C28.5966 24.2507 28.3409 23.8751 28.1665 23.465C27.9925 23.0556 27.9009 22.6143 27.9009 22.1629C27.9009 21.8562 27.9433 21.5507 28.0271 21.2535C28.11 20.9596 28.233 20.6774 28.3953 20.4139C28.5514 20.1604 28.7403 19.9283 28.9559 19.7235C29.1702 19.5199 29.413 19.3422 29.6779 19.1963C29.8849 19.0823 30.0503 18.9219 30.1639 18.7321C30.2772 18.5428 30.3389 18.3229 30.3389 18.0893V13.297C30.3389 13.1614 30.3672 13.0286 30.4202 12.9053C30.4737 12.7807 30.5516 12.6671 30.65 12.5712C30.7485 12.4752 30.865 12.3994 30.993 12.3472Z" fill="black"/>
</svg>
