<svg width="48" height="48" viewBox="0 0 48 48" fill="none" xmlns="http://www.w3.org/2000/svg">
<g clip-path="url(#clip0_57_979)">
<path d="M11.8258 17.423C11.5625 17.4921 11.3851 17.5793 11.306 17.6666C11.2869 17.6876 11.2773 17.7036 11.2778 17.7137C11.2782 17.7219 11.2884 17.7346 11.309 17.7518C11.3973 17.825 11.5882 17.8873 11.8965 17.9236C12.3788 17.9802 12.6463 18.1382 12.9085 18.2931C13.1987 18.4645 13.4816 18.6316 14.0952 18.617C14.2996 18.6121 14.5257 18.5524 14.7666 18.4887C15.3228 18.3418 15.9525 18.1754 16.7111 18.5331C17.3017 18.8116 17.7582 18.9664 18.1693 19.0314C18.5766 19.0958 18.9445 19.0726 19.3593 18.9947L19.373 18.9922C20.5266 18.7758 21.008 18.6855 22.238 19.3688C23.0218 19.8042 23.727 20.095 24.4123 20.2074C25.09 20.3186 25.7524 20.2552 26.4585 19.9843C26.9004 19.8148 27.2627 19.6763 27.6404 19.5704C28.0196 19.4641 28.4084 19.3925 28.8977 19.359C29.0769 19.3468 29.2563 19.3455 29.4347 19.3442C29.9082 19.3408 30.3737 19.3375 30.9263 19.0983C30.9338 19.095 31.0081 19.0621 31.0948 19.024C31.5313 18.8318 31.8853 18.6759 32.425 18.6473C32.8255 18.6261 33.2754 18.6176 33.7173 18.6092C34.0932 18.6021 34.4633 18.5951 34.8007 18.5797C34.8158 18.5735 34.8322 18.5697 34.8495 18.569C34.8657 18.5684 34.8814 18.5705 34.8961 18.575C35.5449 18.5386 35.9872 18.429 36.2008 18.2842C36.2674 18.239 36.3039 18.1961 36.3087 18.1572C36.3132 18.1213 36.2896 18.0767 36.2368 18.0246C36.0644 17.8547 35.6604 17.6792 34.9994 17.531C32.268 16.9183 27.5536 16.5829 22.9554 16.5618C18.4893 16.5413 14.1376 16.817 11.8258 17.423ZM29.6324 21.2615C29.5872 21.3257 29.4986 21.3411 29.4345 21.296C29.3703 21.2508 29.3549 21.1622 29.4 21.0981C29.5737 20.8509 29.7625 20.7301 29.9691 20.5979C30.0752 20.53 30.1865 20.4587 30.3017 20.3631C30.315 20.3511 30.3283 20.3392 30.3417 20.3273C30.3686 20.3032 30.3954 20.2793 30.4218 20.2549L30.4231 20.2537C30.4253 20.2516 30.4275 20.2496 30.4298 20.2477C30.6293 20.0631 30.8075 19.8554 30.8546 19.4315C30.331 19.6212 29.8868 19.6245 29.4358 19.6277C29.2674 19.6289 29.0979 19.6301 28.9166 19.6426C28.4488 19.6746 28.078 19.7427 27.7171 19.8439C27.4001 19.9328 27.0863 20.0487 26.7201 20.1886C27.1832 20.585 27.191 21.1027 27.1992 21.6606C27.2042 21.9935 27.2094 22.3422 27.3254 22.6733C27.3447 22.7286 27.3624 22.776 27.3801 22.8234C27.4951 23.1324 27.6112 23.4439 27.599 24.0583C27.5969 24.1623 27.592 24.2572 27.5871 24.3541C27.5656 24.7715 27.5423 25.2259 27.7528 25.9116C27.814 26.1109 27.8596 26.338 27.8906 26.61C27.9208 26.876 27.9372 27.1886 27.9405 27.5648C27.9484 28.4512 28.0184 29.028 28.1086 29.2918C28.2022 29.0281 28.28 28.4473 28.3004 27.5384C28.3238 26.4974 28.3771 25.9647 28.4236 25.4997C28.4648 25.0879 28.5006 24.7297 28.505 24.1192C28.509 23.5714 28.5411 23.2466 28.5892 23.0981C28.6336 22.9608 28.7091 22.904 28.8095 22.9179C28.8857 22.9285 28.9479 22.9895 28.996 23.0939C29.0746 23.2645 29.1586 23.6244 29.2286 24.0902C29.2616 24.3097 29.2988 24.4482 29.3372 24.5184C29.362 24.4835 29.3889 24.4288 29.4169 24.357C29.5802 23.9379 29.707 23.0744 29.6605 22.116C29.6388 21.6687 29.6845 21.3459 29.7699 21.0991C29.722 21.1462 29.6761 21.1993 29.6324 21.2615ZM30.6222 20.456L30.621 20.4572C30.5732 20.5039 30.5262 20.5458 30.4801 20.5839C30.1855 20.8501 29.8983 21.1601 29.944 22.1026C29.9924 23.1009 29.8562 24.0111 29.6815 24.4593C29.6259 24.6019 29.5625 24.7068 29.4948 24.765C29.3782 24.865 29.2616 24.8643 29.1521 24.7446C29.0682 24.6528 28.9959 24.4557 28.9474 24.1324C28.9056 23.8545 28.8601 23.6199 28.8153 23.4477C28.8002 23.6074 28.7907 23.8286 28.7885 24.1203C28.784 24.7476 28.7477 25.1104 28.706 25.5275C28.6599 25.9888 28.607 26.5172 28.5839 27.544C28.5621 28.5162 28.4722 29.1393 28.3646 29.4173C28.3008 29.5823 28.2121 29.6639 28.106 29.6628C27.9999 29.6617 27.9126 29.5785 27.8512 29.414C27.7471 29.1352 27.6654 28.5155 27.657 27.567C27.6538 27.2048 27.6378 26.9016 27.6082 26.6411C27.5792 26.3866 27.5373 26.1766 27.4816 25.995C27.2563 25.2611 27.2809 24.7808 27.3036 24.3396C27.3087 24.2399 27.3137 24.1423 27.3155 24.0528C27.3266 23.4922 27.22 23.2061 27.1143 22.9224C27.0943 22.8687 27.0744 22.8152 27.0574 22.7667C26.9266 22.3932 26.921 22.0201 26.9157 21.6639C26.9082 21.1549 26.9012 20.6841 26.4773 20.3575C26.3305 20.5134 26.2431 20.7352 26.1956 20.986C26.1329 21.3162 26.1391 21.6937 26.1716 22.0439C26.2017 22.368 26.2271 22.7038 26.1845 23.0472C26.1409 23.3991 26.0269 23.7568 25.7774 24.1144C25.6732 24.2637 25.5986 24.4271 25.5475 24.62C25.4947 24.819 25.4665 25.0491 25.4564 25.3263C25.4339 25.9447 25.3476 26.3598 25.2375 26.5556C25.1714 26.6734 25.087 26.7349 24.9896 26.7386C24.8917 26.7424 24.8031 26.687 24.7294 26.5711C24.61 26.3832 24.5009 25.9724 24.4412 25.3306C24.4253 25.16 24.4149 25.0433 24.4084 24.9671C24.3969 24.8314 24.3874 24.7108 24.3818 24.6342C24.3043 23.5854 24.1961 22.989 24.0851 22.7421C24.0666 22.7009 24.1139 22.6702 24.0919 22.6746C24.0895 22.6751 24.0819 22.7102 24.0563 22.7781C23.9428 23.0785 23.8573 23.734 23.8454 24.5921C23.8381 25.1242 23.8386 25.6712 23.8392 26.221C23.8403 27.2972 23.8415 28.3843 23.7839 29.3845C23.7086 30.6942 23.6269 31.5763 23.545 31.973C23.5004 32.1891 23.4289 32.3052 23.3303 32.3166C23.214 32.3301 23.1313 32.2219 23.0851 31.9866C23.0116 31.6124 22.943 30.7582 22.8847 29.3749C22.8761 29.1717 22.8684 28.9482 22.8604 28.716C22.8152 27.3992 22.7601 25.7972 22.4127 24.673C22.3516 24.4753 22.2768 24.2931 22.2014 24.1095C22.1458 23.9739 22.0898 23.8376 22.0381 23.6936L22.0366 23.6896C22.0355 23.6867 22.0345 23.6838 22.0336 23.6809C21.8687 23.2174 21.7495 22.6721 21.8275 21.8128C21.8968 21.0489 21.865 20.4095 21.6871 19.9441C21.5406 19.561 21.2902 19.2977 20.908 19.184C20.9129 19.7335 20.7674 20.1244 20.5495 20.4219C20.3096 20.7495 19.9889 20.9545 19.6859 21.1343C19.0185 21.5304 19.1691 25.431 19.2447 27.3901C19.2573 27.717 19.2679 27.9904 19.2721 28.1913C19.2915 29.1076 19.2353 29.7935 19.1486 30.1117C19.1035 30.2774 19.0335 30.3761 18.9422 30.398C18.8258 30.426 18.7293 30.3512 18.6625 30.1608C18.5679 29.8913 18.476 29.2671 18.4176 28.2019C18.4074 28.0165 18.3973 27.8066 18.3869 27.5891C18.3217 26.2365 18.242 24.58 17.876 23.8154C17.4438 22.9126 17.5312 22.4599 17.6167 22.0172L17.6346 21.9245C17.6463 21.8612 17.6549 21.799 17.6604 21.7383C17.6896 21.4142 17.6365 21.101 17.4963 20.8558C17.3615 20.6201 17.1432 20.4468 16.8368 20.39C16.8129 20.3856 16.7889 20.3819 16.7649 20.3789C16.6673 20.4916 16.5573 20.5763 16.4399 20.6391C16.2256 20.7538 15.9907 20.7921 15.7642 20.7944C15.7299 20.7947 15.6958 20.7947 15.6627 20.7947C15.5789 20.7945 15.501 20.7944 15.4334 20.8015C15.2946 20.8161 15.2111 20.8836 15.2407 21.1653C15.2765 21.5064 15.2912 21.7744 15.2692 22.0464C15.247 22.3205 15.1881 22.5956 15.077 22.9488C14.9895 23.2269 14.9178 23.4673 14.8699 23.6944C14.8226 23.9193 14.7975 24.1342 14.8019 24.3654C14.8262 25.6474 14.7485 26.5008 14.6381 26.8834C14.579 27.0884 14.49 27.1967 14.3796 27.2051C14.2612 27.2141 14.1632 27.1152 14.0957 26.9048C13.98 26.5442 13.883 25.7221 13.8663 24.4089C13.8598 23.9049 13.7444 23.4553 13.6312 23.0149C13.5003 22.505 13.3723 22.007 13.4071 21.4371L13.4082 21.4205C13.4418 20.8706 13.4712 20.3891 13.2331 20.2367C13.2118 20.2231 13.1903 20.2091 13.1688 20.1947L13.1583 20.1877C13.1566 20.1866 13.155 20.1854 13.1534 20.1842C13.0431 20.1087 12.9325 20.017 12.8399 19.8751C12.7274 19.7028 12.6478 19.4626 12.6411 19.0984C12.6407 19.0751 12.6407 19.0491 12.6406 19.0222C12.6402 18.7976 12.6396 18.4869 12.3085 18.3087C12.1831 18.263 12.0393 18.2265 11.8643 18.206C11.4971 18.1628 11.2555 18.0767 11.1278 17.9708C11.0423 17.8999 10.9986 17.8172 10.9943 17.7271C10.99 17.6389 11.0246 17.5538 11.0958 17.4753C11.2097 17.3499 11.4355 17.2321 11.7547 17.1484C14.0898 16.5363 18.4686 16.2577 22.9565 16.2783C27.5734 16.2995 32.3112 16.6372 35.0617 17.2541C35.7775 17.4147 36.2285 17.6179 36.4358 17.8222C36.5561 17.9408 36.6068 18.0659 36.5911 18.1917C36.5758 18.3146 36.4977 18.4253 36.3598 18.5188C36.1173 18.6831 35.655 18.8078 34.9993 18.8528C34.9925 19.7608 34.5534 20.083 34.1324 20.3917C33.7471 20.6743 33.3797 20.9438 33.5022 21.7883C33.6085 22.521 33.4988 23.0475 33.3751 23.6415C33.2951 24.0254 33.209 24.4386 33.1752 24.955C33.1264 25.6998 33.0334 26.1725 32.9289 26.387C32.8627 26.5228 32.7766 26.5883 32.676 26.5854C32.5778 26.5827 32.4952 26.5136 32.4326 26.3801C32.3298 26.1606 32.2439 25.6869 32.2096 24.981C32.1993 24.7691 32.2028 24.5782 32.206 24.3994C32.214 23.9643 32.2206 23.6053 32.0014 23.1647C31.9744 23.1104 31.9496 23.0566 31.9268 23.0035C31.9214 22.9908 31.916 22.9782 31.9109 22.9656C31.7717 22.6277 31.7156 22.3142 31.7067 22.0219C31.6962 21.6764 31.7517 21.3666 31.8128 21.0817C31.8899 20.7219 31.8622 20.4782 31.7784 20.2951C31.6955 20.1138 31.5509 19.9804 31.3982 19.8511C31.2981 19.7793 31.2024 19.6972 31.1174 19.6043C31.041 20.0327 30.8415 20.2547 30.6222 20.456ZM23.0959 25.2446C23.1382 25.3106 23.1191 25.3984 23.0531 25.4408C22.9983 25.476 22.9284 25.4687 22.882 25.4275C23.0667 26.4598 23.1083 27.6706 23.144 28.7071C23.1517 28.9332 23.1592 29.1508 23.1682 29.3638C23.2128 30.4215 23.263 31.1636 23.3166 31.6133C23.3792 31.1521 23.4414 30.3947 23.5004 29.369C23.558 28.369 23.5568 27.2896 23.5557 26.221C23.5551 25.6696 23.5546 25.1211 23.5619 24.5887C23.5743 23.6968 23.667 23.0051 23.7905 22.678C23.8523 22.5145 23.9352 22.417 24.0363 22.3967C24.1569 22.3724 24.2623 22.4444 24.3442 22.6265C24.4674 22.9007 24.5852 23.5303 24.6653 24.6141C24.6699 24.6773 24.679 24.7917 24.6919 24.9438C24.7039 25.085 24.7153 25.216 24.7236 25.305C24.7787 25.8977 24.8712 26.264 24.9696 26.4188C24.9848 26.4427 24.9713 26.4554 24.9796 26.4551C24.9874 26.4548 24.9751 26.4425 24.9896 26.4166C25.0801 26.2556 25.1522 25.8863 25.1729 25.3163C25.1838 25.0172 25.2147 24.7669 25.2728 24.5477C25.3326 24.3225 25.4208 24.13 25.545 23.9521C25.7635 23.639 25.8635 23.3237 25.9021 23.0127C25.9417 22.6932 25.9177 22.376 25.8892 22.0695C25.8546 21.6966 25.8484 21.2924 25.9165 20.9337C25.9533 20.7397 26.0117 20.5585 26.0984 20.401C25.5116 20.5594 24.945 20.5825 24.3667 20.4876C23.6462 20.3693 22.9118 20.0676 22.1001 19.6167C21.968 19.5433 21.8451 19.4796 21.7294 19.4245C21.819 19.5468 21.8931 19.6867 21.9528 19.8429C22.1469 20.3506 22.183 21.0322 22.1099 21.8384C22.0372 22.639 22.1477 23.1514 22.3017 23.5868C22.3019 23.5873 22.3021 23.5879 22.3023 23.5884C22.4258 23.9107 22.5424 24.1987 22.6677 24.4659C22.7933 24.7339 22.9304 24.9878 23.0959 25.2446ZM32.6766 23.6559C32.7309 23.7124 32.7292 23.8022 32.6727 23.8566C32.6198 23.9074 32.5377 23.9091 32.4829 23.8629C32.4962 24.0382 32.493 24.2144 32.4895 24.4039C32.4864 24.5764 32.483 24.7606 32.4931 24.9676C32.5247 25.6167 32.5967 26.0463 32.682 26.2434C32.7688 26.0484 32.847 25.619 32.8917 24.9372C32.9268 24.4014 33.0151 23.9775 33.0971 23.5837C33.2154 23.016 33.3202 22.5128 33.2209 21.8283C33.0741 20.8158 33.5087 20.497 33.9645 20.1627C34.3249 19.8984 34.7007 19.6227 34.7151 18.8675C34.4078 18.8798 34.0672 18.8862 33.7218 18.8927C33.2876 18.901 32.8456 18.9093 32.4395 18.9308C31.9575 18.9563 31.626 19.1006 31.2203 19.2793C31.3111 19.413 31.4325 19.5266 31.564 19.6209C31.5673 19.623 31.5706 19.6254 31.5738 19.6279C31.579 19.6316 31.5843 19.6353 31.5896 19.6389C31.8499 19.819 32.1393 19.9225 32.3127 19.959C32.3895 19.9749 32.4388 20.0501 32.4228 20.1268C32.4068 20.2036 32.3317 20.2529 32.2549 20.2369C32.1929 20.2239 32.118 20.2035 32.0354 20.1753L32.0363 20.1772C32.144 20.4126 32.1823 20.7136 32.0907 21.1406C32.0331 21.4095 31.9807 21.7002 31.9903 22.0141C31.9986 22.2901 32.055 22.5888 32.1983 22.9148C32.2528 23.0371 32.3212 23.1592 32.3904 23.2692C32.5033 23.4483 32.6165 23.5936 32.6766 23.6559ZM28.1518 30.5169C28.2744 30.5169 28.3929 30.652 28.4793 30.8225C28.5638 30.9894 28.6305 31.2027 28.6305 31.323C28.6305 31.4552 28.5769 31.5748 28.4903 31.6615C28.4036 31.7481 28.284 31.8017 28.1518 31.8017C28.0197 31.8017 27.9 31.7481 27.8134 31.6615C27.7268 31.5748 27.6732 31.4552 27.6732 31.323C27.6732 31.2027 27.7398 30.9894 27.8244 30.8225C27.9107 30.652 28.0293 30.5169 28.1518 30.5169ZM28.2258 30.9503C28.1837 30.8673 28.1528 30.8015 28.1518 30.8015C28.1508 30.8015 28.1199 30.8673 28.0779 30.9503C28.0107 31.0828 27.9578 31.2422 27.9578 31.323C27.9578 31.3766 27.9795 31.4251 28.0146 31.4602C28.0497 31.4953 28.0983 31.517 28.1518 31.517C28.2054 31.517 28.2539 31.4953 28.289 31.4602C28.3241 31.4251 28.3458 31.3766 28.3458 31.323C28.3458 31.2422 28.2929 31.0828 28.2258 30.9503ZM23.3752 35.7069C23.5186 35.7069 23.6631 35.8766 23.7715 36.0905C23.8821 36.3088 23.9692 36.5861 23.9692 36.7409C23.9692 36.905 23.9027 37.0535 23.7952 37.161C23.6877 37.2685 23.5392 37.335 23.3752 37.335C23.2112 37.335 23.0626 37.2685 22.9551 37.161C22.8476 37.0535 22.7811 36.905 22.7811 36.7409C22.7811 36.5861 22.8683 36.3088 22.9788 36.0905C23.0872 35.8766 23.2317 35.7069 23.3752 35.7069ZM23.518 36.2184C23.454 36.0919 23.395 35.9915 23.3752 35.9915C23.3553 35.9915 23.2964 36.0919 23.2323 36.2184C23.1392 36.4023 23.0658 36.6256 23.0658 36.7409C23.0658 36.8264 23.1004 36.9038 23.1564 36.9598C23.2124 37.0157 23.2897 37.0504 23.3752 37.0504C23.4606 37.0504 23.538 37.0157 23.594 36.9598C23.65 36.9038 23.6846 36.8264 23.6846 36.7409C23.6846 36.6256 23.6112 36.4023 23.518 36.2184ZM23.371 33.5698C23.4946 33.5698 23.6144 33.7067 23.7019 33.8793C23.7877 34.0488 23.8554 34.2653 23.8554 34.3874C23.8554 34.5211 23.8012 34.6422 23.7135 34.7299C23.6258 34.8175 23.5047 34.8718 23.371 34.8718C23.2372 34.8718 23.1161 34.8175 23.0285 34.7299C22.9408 34.6422 22.8866 34.5211 22.8866 34.3874C22.8866 34.2653 22.9542 34.0488 23.0401 33.8793C23.1275 33.7067 23.2474 33.5698 23.371 33.5698ZM23.4484 34.0071L23.371 33.8544L23.2936 34.0071C23.2251 34.1422 23.1712 34.3048 23.1712 34.3874C23.1712 34.4425 23.1936 34.4925 23.2297 34.5286C23.2659 34.5648 23.3158 34.5871 23.371 34.5871C23.4262 34.5871 23.4761 34.5648 23.5123 34.5286C23.5484 34.4925 23.5708 34.4425 23.5708 34.3874C23.5708 34.3048 23.5168 34.1422 23.4484 34.0071ZM32.6831 26.2942C32.679 26.2992 32.6766 26.3017 32.6838 26.3019C32.6924 26.3022 32.6887 26.2995 32.6831 26.2942ZM28.1082 29.3667C28.1025 29.375 28.0988 29.3792 28.1082 29.3793C28.1177 29.3794 28.1139 29.3751 28.1082 29.3667ZM23.3017 32.0183C23.2842 32.0307 23.2754 32.0369 23.298 32.0342C23.3115 32.0327 23.3093 32.0277 23.3017 32.0183ZM18.9566 21.4681C18.8811 21.4887 18.8032 21.4441 18.7826 21.3686C18.7621 21.2931 18.8066 21.2151 18.8821 21.1946C18.9239 21.1832 19.1028 21.1122 19.3301 20.9982C19.4608 20.9326 19.6059 20.8531 19.7475 20.7631C19.9582 20.6272 20.1635 20.4683 20.3205 20.254C20.5129 19.9913 20.6385 19.6371 20.6226 19.1236C20.2711 19.1126 19.9119 19.18 19.4253 19.2712L19.4116 19.2738C18.9668 19.3572 18.5699 19.3818 18.126 19.3116C17.6859 19.242 17.2048 19.0799 16.5899 18.7899C15.9249 18.4764 15.3482 18.6287 14.8389 18.7633C14.5822 18.8311 14.3414 18.8948 14.1019 18.9005C13.4946 18.915 13.1759 18.7741 12.8883 18.6102C12.9236 18.7544 12.9239 18.8982 12.9241 19.0222C12.9242 19.0466 12.9242 19.0701 12.9246 19.0939C12.9302 19.3962 12.9914 19.5882 13.0778 19.7206C13.1435 19.8212 13.2278 19.8912 13.3137 19.9504C13.3146 19.9509 13.3154 19.9514 13.3162 19.952C13.4131 20.0169 13.5207 20.0827 13.6295 20.1452C13.7531 20.2163 13.8826 20.2854 14.0016 20.3457C14.0716 20.381 14.0997 20.4663 14.0644 20.5363C14.0291 20.6063 13.9437 20.6345 13.8737 20.5992C13.8139 20.5689 13.7502 20.5356 13.6844 20.5001C13.7329 20.7629 13.713 21.0882 13.6917 21.4371L13.6907 21.4538C13.6584 21.9816 13.7807 22.4576 13.9058 22.9448C14.0232 23.4016 14.1429 23.8678 14.1498 24.4055C14.166 25.6804 14.2563 26.4705 14.364 26.812C14.3645 26.8099 14.3651 26.8078 14.3657 26.8056C14.4695 26.4459 14.5421 25.6231 14.5184 24.3698C14.5136 24.1148 14.5407 23.8802 14.592 23.6366C14.6428 23.3953 14.7164 23.1482 14.8057 22.8643C14.9101 22.5324 14.9652 22.2763 14.9857 22.0242C15.0062 21.7702 14.9922 21.5173 14.9583 21.1942C14.9042 20.6791 15.0936 20.5518 15.4045 20.5191C15.4829 20.5109 15.5695 20.511 15.6627 20.5111C15.6949 20.5112 15.7279 20.5112 15.762 20.5109C15.948 20.509 16.1384 20.4789 16.3064 20.389C16.471 20.3009 16.6181 20.1521 16.7245 19.9101C16.7561 19.8383 16.84 19.8056 16.9119 19.8373C16.9837 19.8689 17.0163 19.9528 16.9847 20.0246C16.9699 20.0582 16.9545 20.0904 16.9384 20.1213C17.3094 20.2041 17.5759 20.4222 17.7431 20.7146C17.9124 21.0107 17.9771 21.3823 17.9428 21.7628C17.9363 21.8347 17.9266 21.9058 17.9136 21.9756C17.9026 22.0351 17.8992 22.0528 17.8958 22.0705C17.8189 22.4686 17.7403 22.8755 18.1317 23.6931C18.5227 24.5101 18.604 26.1977 18.6704 27.5758C18.6804 27.784 18.6901 27.9849 18.7011 28.1863C18.7503 29.0829 18.821 29.6503 18.8953 29.9475C18.964 29.6187 19.0057 29.0032 18.9886 28.1969C18.9846 28.0058 18.9739 27.7299 18.9612 27.4001C18.8957 25.7034 18.7756 22.5913 19.2243 21.3617C19.0901 21.4213 18.9901 21.4589 18.9566 21.4681ZM18.8812 30.114C18.8665 30.1224 18.8585 30.1266 18.8766 30.1223C18.8818 30.121 18.8825 30.1185 18.8812 30.114ZM14.3608 26.8956C14.353 26.9134 14.3457 26.9225 14.3585 26.9216C14.3668 26.9209 14.3638 26.9125 14.3608 26.8956Z" fill="black"/>
</g>
<defs>
<clipPath id="clip0_57_979">
<rect width="25.6" height="32" fill="white" transform="translate(11 14)"/>
</clipPath>
</defs>
</svg>
