<svg width="48" height="48" viewBox="0 0 48 48" fill="none" xmlns="http://www.w3.org/2000/svg">
<g clip-path="url(#clip0_57_1067)">
<path d="M35.8889 35.9365C35.5702 35.9365 35.2697 36.0122 35.001 36.1435L33.2857 33.1106C33.2166 32.9887 33.0615 32.9455 32.9395 33.0146C32.8174 33.0837 32.7745 33.2386 32.8435 33.3607L34.5748 36.4218C34.1365 36.7947 33.8571 37.3491 33.8571 37.9683C33.8571 39.0885 34.7686 40 35.8889 40C37.0091 40 37.9206 39.0885 37.9206 37.9683C37.9206 36.848 37.0091 35.9365 35.8889 35.9365ZM35.8889 39.4921C35.0485 39.4921 34.3651 38.8086 34.3651 37.9683C34.3651 37.1279 35.0485 36.4444 35.8889 36.4444C36.7293 36.4444 37.4127 37.1279 37.4127 37.9683C37.4127 38.8086 36.7293 39.4921 35.8889 39.4921Z" fill="black"/>
<path d="M32.8342 32.3124L32.3978 31.5406C32.3288 31.4187 32.1736 31.3755 32.0517 31.4446C31.9295 31.5136 31.8866 31.6686 31.9557 31.7907L32.392 32.5625C32.4387 32.6451 32.5248 32.6916 32.6135 32.6916C32.6559 32.6916 32.6988 32.6809 32.7382 32.6588C32.8603 32.5895 32.9032 32.4345 32.8342 32.3124Z" fill="black"/>
<path d="M31.9092 30.6768L31.4495 29.8641C33.2197 28.5176 34.3651 26.3904 34.3651 24C34.3651 20.0241 31.1978 16.7759 27.254 16.6413V12.046C28.2546 11.9203 29.0317 11.0659 29.0317 10.0317C29.0317 8.91149 28.1203 8 27 8C25.8797 8 24.9683 8.91149 24.9683 10.0317C24.9683 11.0659 25.7454 11.9203 26.746 12.046V16.6415C22.8867 16.7731 19.7731 19.8867 19.6413 23.746H15.046C14.9203 22.7454 14.0659 21.9683 13.0317 21.9683C11.9115 21.9683 11 22.8797 11 24C11 25.1203 11.9115 26.0317 13.0317 26.0317C14.0659 26.0317 14.9203 25.2546 15.046 24.254H19.6415C19.7365 27.0354 21.3799 29.4298 23.736 30.5999L21.6281 34.0401C21.4028 33.954 21.1597 33.9048 20.9048 33.9048C19.7845 33.9048 18.873 34.8163 18.873 35.9365C18.873 37.0568 19.7845 37.9683 20.9048 37.9683C22.025 37.9683 22.9365 37.0568 22.9365 35.9365C22.9365 35.2528 22.5959 34.6481 22.0768 34.2799L24.202 30.8117C25.0653 31.1675 26.0098 31.3651 27 31.3651C28.4877 31.3651 29.8731 30.9201 31.0325 30.1585L31.467 30.9267C31.5138 31.0093 31.5999 31.0557 31.6885 31.0557C31.7309 31.0557 31.7738 31.0451 31.8132 31.023C31.9354 30.9539 31.9783 30.799 31.9092 30.6768ZM22.4286 35.9365C22.4286 36.7769 21.7451 37.4603 20.9048 37.4603C20.0644 37.4603 19.381 36.7769 19.381 35.9365C19.381 35.0961 20.0644 34.4127 20.9048 34.4127C21.7451 34.4127 22.4286 35.0961 22.4286 35.9365ZM25.4762 10.0317C25.4762 9.19137 26.1596 8.50794 27 8.50794C27.8404 8.50794 28.5238 9.19137 28.5238 10.0317C28.5238 10.8721 27.8404 11.5556 27 11.5556C26.1596 11.5556 25.4762 10.8721 25.4762 10.0317ZM13.0317 25.5238C12.1914 25.5238 11.5079 24.8404 11.5079 24C11.5079 23.1596 12.1914 22.4762 13.0317 22.4762C13.8721 22.4762 14.5556 23.1596 14.5556 24C14.5556 24.8404 13.8721 25.5238 13.0317 25.5238ZM20.1429 24C20.1429 20.2189 23.2189 17.1429 27 17.1429C30.7811 17.1429 33.8571 20.2189 33.8571 24C33.8571 27.7811 30.7811 30.8571 27 30.8571C23.2189 30.8571 20.1429 27.7811 20.1429 24Z" fill="black"/>
<path d="M27.5079 20.6984C28.4017 20.6984 29.239 21.0512 29.8663 21.6917C29.9643 21.792 30.1251 21.7933 30.2254 21.6955C30.3257 21.5975 30.3273 21.4364 30.2292 21.3364C29.5057 20.5973 28.5393 20.1905 27.5079 20.1905C25.4074 20.1905 23.6984 21.8994 23.6984 24C23.6984 26.1006 25.4074 27.8095 27.5079 27.8095C28.5393 27.8095 29.5057 27.4027 30.229 26.6639C30.3273 26.5636 30.3255 26.4028 30.2252 26.3048C30.1248 26.2067 29.9643 26.2085 29.866 26.3086C29.239 26.9488 28.4017 27.3016 27.5079 27.3016C25.6875 27.3016 24.2064 25.8204 24.2064 24C24.2064 22.1796 25.6875 20.6984 27.5079 20.6984Z" fill="black"/>
</g>
<defs>
<clipPath id="clip0_57_1067">
<rect width="26.9206" height="32" fill="white" transform="translate(11 8)"/>
</clipPath>
</defs>
</svg>
