<svg width="48" height="48" viewBox="0 0 48 48" fill="none" xmlns="http://www.w3.org/2000/svg">
<g clip-path="url(#clip0_57_990)">
<mask id="mask0_57_990" style="mask-type:luminance" maskUnits="userSpaceOnUse" x="11" y="11" width="26" height="32">
<path d="M36.4359 11H11V42.9389H36.4359V11Z" fill="white"/>
</mask>
<g mask="url(#mask0_57_990)">
<path d="M35.5157 25.5498C35.327 25.4161 35.1095 25.2622 34.8039 25.1642C34.7998 25.1293 34.7949 25.094 34.7949 25.0583C34.7949 24.875 34.8486 24.6973 34.9504 24.5447L35.2888 24.0368C35.5026 23.7168 35.6154 23.3439 35.6154 22.9586C35.6154 22.3502 35.3249 21.7689 34.8379 21.4038L34.4667 21.1256C34.1586 20.8946 33.9744 20.5262 33.9744 20.141H33.1538C33.1538 20.7831 33.4607 21.3968 33.9744 21.782L34.3456 22.0602C34.6271 22.2715 34.7949 22.6071 34.7949 22.9586C34.7949 23.181 34.7296 23.3964 34.6066 23.5814L34.2681 24.0893C34.0761 24.3773 33.9744 24.7125 33.9744 25.0583C33.9744 25.0624 33.9756 25.0665 33.9756 25.0711C33.3606 25.1055 33.0094 25.3492 32.7264 25.5502C32.4523 25.7447 32.2542 25.8846 31.8062 25.8846C31.5719 25.8846 31.4066 25.8456 31.2622 25.7808C31.425 25.147 31.5128 24.4942 31.5128 23.8333C31.5128 22.1492 30.9705 20.5927 30.0593 19.3168C30.4503 19.0132 30.6923 18.5426 30.6923 18.0265C30.6923 17.4025 30.3456 16.8421 29.7881 16.5632L29.2638 16.301C29.1329 16.2358 29.0513 16.1041 29.0513 15.9572C29.0513 15.8546 29.0915 15.7578 29.1637 15.6852L29.4981 15.3509C29.7356 15.1137 29.8718 14.7851 29.8718 14.4495C29.8718 14.0225 29.6597 13.6262 29.3044 13.389L28.4585 12.8249L28.0035 13.5076L28.8494 14.0717C28.9758 14.1562 29.0513 14.2973 29.0513 14.4495C29.0513 14.5693 29.0029 14.6863 28.9184 14.7708L28.584 15.1051C28.3563 15.3328 28.2308 15.6356 28.2308 15.9572C28.2308 16.4167 28.4859 16.8294 28.897 17.035L29.4213 17.2971C29.6991 17.4362 29.8718 17.716 29.8718 18.0265C29.8718 18.2862 29.7483 18.5221 29.5461 18.6747C28.1393 17.0871 26.1011 16.075 23.8258 16.0434L23.7401 16.0003C23.4734 15.8678 23.3077 15.5995 23.3077 15.3012C23.3077 15.0957 23.3914 14.8938 23.5366 14.7482L24.008 14.2768L23.4279 13.6967L22.9565 14.1681C22.6537 14.4709 22.4872 14.8733 22.4872 15.3012C22.4872 15.5937 22.5668 15.8706 22.7075 16.1115C20.7973 16.3605 19.1058 17.3012 17.8882 18.6764C17.6884 18.5254 17.5641 18.2875 17.5641 18.0265C17.5641 17.7156 17.7368 17.4362 18.015 17.2971L18.5393 17.035C18.9499 16.8298 19.2051 16.4167 19.2051 15.9572C19.2051 15.6352 19.0796 15.3328 18.8523 15.1051L18.5179 14.7708C18.433 14.6863 18.3846 14.5693 18.3846 14.4495C18.3846 14.2973 18.4601 14.1562 18.5869 14.0717L19.4328 13.5076L18.9778 12.8249L18.1319 13.389C17.7762 13.6262 17.5641 14.0225 17.5641 14.4495C17.5641 14.7851 17.7003 15.1137 17.9374 15.3509L18.2718 15.6852C18.3444 15.7582 18.3846 15.8546 18.3846 15.9572C18.3846 16.1037 18.303 16.2358 18.1721 16.301L17.6478 16.5632C17.0903 16.8421 16.7436 17.403 16.7436 18.0265C16.7436 18.5406 16.9844 19.0095 17.3783 19.3148C16.4658 20.5911 15.9231 22.1484 15.9231 23.8333C15.9231 24.2592 15.9616 24.6825 16.0297 25.0998C15.9058 25.0784 15.7725 25.0641 15.6211 25.0641C14.9126 25.0641 14.5335 25.3336 14.2283 25.5502C13.9551 25.7447 13.7577 25.8846 13.311 25.8846C13.2896 25.8846 13.2712 25.883 13.2511 25.8821C13.3856 25.6306 13.4615 25.3484 13.4615 25.0583C13.4615 24.7125 13.3598 24.3773 13.1682 24.0897L12.8297 23.5818C12.7063 23.3968 12.641 23.181 12.641 22.9586C12.641 22.6071 12.8088 22.2711 13.0903 22.0606L13.4615 21.782C13.9752 21.3968 14.2821 20.7831 14.2821 20.141H13.4615C13.4615 20.5262 13.2773 20.8942 12.9692 21.1256L12.5979 21.4042C12.111 21.7689 11.8205 22.3502 11.8205 22.9586C11.8205 23.3435 11.9333 23.7164 12.1467 24.0364L12.4851 24.5443C12.5873 24.6973 12.641 24.875 12.641 25.0583C12.641 25.254 12.5737 25.4415 12.4613 25.5978C12.4388 25.5822 12.4166 25.5666 12.3932 25.5498C12.088 25.3336 11.7089 25.0641 11 25.0641V25.8846C11.4468 25.8846 11.6445 26.0249 11.9182 26.219C12.2234 26.4352 12.6025 26.7051 13.3114 26.7051C14.0199 26.7051 14.399 26.4356 14.7038 26.219C14.977 26.0245 15.1744 25.8846 15.6211 25.8846C16.0679 25.8846 16.2656 26.0249 16.5389 26.219C16.8441 26.4352 17.2232 26.7051 17.9321 26.7051C18.641 26.7051 19.0205 26.4356 19.3253 26.219C19.599 26.0245 19.7967 25.8846 20.2439 25.8846C20.6911 25.8846 20.8888 26.0249 21.1625 26.219C21.4673 26.4352 21.8472 26.7051 22.5557 26.7051C23.2642 26.7051 23.6441 26.4356 23.9489 26.219C24.2226 26.0245 24.4203 25.8846 24.8675 25.8846C25.3147 25.8846 25.5124 26.0249 25.7865 26.219C26.0917 26.4352 26.4712 26.7051 27.1801 26.7051C27.889 26.7051 28.2681 26.4356 28.5733 26.219C28.847 26.0245 29.0443 25.8846 29.4915 25.8846C29.9391 25.8846 30.1372 26.0249 30.4109 26.219C30.7161 26.4356 31.096 26.7051 31.8049 26.7051C32.5143 26.7051 32.8942 26.436 33.1994 26.219C33.4734 26.0245 33.6716 25.8846 34.1196 25.8846C34.5676 25.8846 34.7657 26.0249 35.0402 26.219C35.3454 26.4356 35.7253 26.7051 36.4347 26.7051V25.8846C35.9879 25.8846 35.7897 25.7443 35.5157 25.5498ZM30.3834 21.782H24.5385C24.3124 21.782 24.1282 21.5978 24.1282 21.3718C24.1282 21.1457 24.3124 20.9615 24.5385 20.9615H25.359C26.0375 20.9615 26.5897 20.4093 26.5897 19.7308C26.5897 19.0522 26.0375 18.5 25.359 18.5H21.6667C21.2142 18.5 20.8462 18.132 20.8462 17.6795C20.8462 17.6077 20.8581 17.5383 20.8761 17.4706C21.7454 17.0809 22.7054 16.859 23.7179 16.859C26.8498 16.859 29.5054 18.9344 30.3834 21.782ZM18.8507 25.5498C18.577 25.7443 18.3793 25.8842 17.9321 25.8842C17.4853 25.8842 17.2876 25.7439 17.0139 25.5498C16.9926 25.5346 16.9701 25.5191 16.9479 25.5035C16.8146 24.9599 16.7436 24.3991 16.7436 23.8333C16.7436 22.8089 16.9713 21.8386 17.3696 20.9615H17.5641C17.7902 20.9615 17.9744 21.1457 17.9744 21.3718V22.1923C17.9744 22.8709 18.5266 23.4231 19.2051 23.4231H22.0769C22.303 23.4231 22.4872 23.6073 22.4872 23.8333C22.4872 24.0594 22.303 24.2436 22.0769 24.2436H20.8462C20.2874 24.2436 19.8197 24.6202 19.6699 25.1355C19.3077 25.2298 19.0603 25.4013 18.8507 25.5498ZM26.2619 25.5498C25.9567 25.3332 25.5772 25.0637 24.8683 25.0637C24.1594 25.0637 23.7799 25.3332 23.4751 25.5498C23.2014 25.7443 23.0037 25.8842 22.5565 25.8842C22.1093 25.8842 21.9116 25.7439 21.6379 25.5498C21.4021 25.3824 21.1194 25.1847 20.6767 25.1031C20.7288 25.0793 20.7854 25.0637 20.8466 25.0637H22.0773C22.7559 25.0637 23.3081 24.5115 23.3081 23.8329C23.3081 23.1543 22.7559 22.6021 22.0773 22.6021H19.2055C18.9795 22.6021 18.7953 22.4179 18.7953 22.1919V21.3714C18.7953 20.7728 18.3653 20.2739 17.7979 20.1644C18.3657 19.2516 19.1366 18.4807 20.0494 17.9129C20.1639 18.7068 20.8421 19.3205 21.6667 19.3205H25.359C25.585 19.3205 25.7692 19.5047 25.7692 19.7308C25.7692 19.9568 25.585 20.141 25.359 20.141H24.5385C23.8599 20.141 23.3077 20.6932 23.3077 21.3718C23.3077 22.0503 23.8599 22.6025 24.5385 22.6025H30.577C30.625 22.8709 30.6554 23.1449 30.6718 23.4231H27.8205C27.1419 23.4231 26.5897 23.9753 26.5897 24.6538C26.5897 25.2319 26.9918 25.7148 27.5296 25.846C27.4299 25.8698 27.3179 25.8846 27.1809 25.8846C26.7337 25.8846 26.536 25.7443 26.2619 25.5498ZM28.9832 25.1186C28.872 25.0862 28.7579 25.0641 28.641 25.0641H27.8205C27.5945 25.0641 27.4103 24.8803 27.4103 24.6538C27.4103 24.4274 27.5945 24.2436 27.8205 24.2436H30.6775C30.6566 24.6071 30.609 24.9669 30.5323 25.3205C30.2788 25.1798 29.9571 25.0641 29.4927 25.0641C29.2995 25.0641 29.1325 25.085 28.9832 25.1186Z" fill="black"/>
<path d="M16.7436 27.9359C16.7436 27.2573 16.1914 26.7051 15.5128 26.7051C14.8342 26.7051 14.282 27.2573 14.282 27.9359C14.282 28.6145 14.8342 29.1666 15.5128 29.1666C16.1914 29.1666 16.7436 28.6145 16.7436 27.9359ZM15.1026 27.9359C15.1026 27.7095 15.2868 27.5256 15.5128 27.5256C15.7389 27.5256 15.9231 27.7095 15.9231 27.9359C15.9231 28.1623 15.7389 28.3461 15.5128 28.3461C15.2868 28.3461 15.1026 28.1623 15.1026 27.9359Z" fill="black"/>
<path d="M16.7436 29.9872C15.8386 29.9872 15.1026 30.7232 15.1026 31.6282C15.1026 32.5333 15.8386 33.2692 16.7436 33.2692C17.6486 33.2692 18.3846 32.5333 18.3846 31.6282C18.3846 30.7232 17.6486 29.9872 16.7436 29.9872ZM16.7436 32.4487C16.2911 32.4487 15.9231 32.0807 15.9231 31.6282C15.9231 31.1757 16.2911 30.8077 16.7436 30.8077C17.1961 30.8077 17.5641 31.1757 17.5641 31.6282C17.5641 32.0807 17.1961 32.4487 16.7436 32.4487Z" fill="black"/>
<path d="M35.1514 29.9872H34.0741C32.9709 29.9872 31.9284 30.3749 31.0964 31.0809C30.9647 30.9746 30.8298 30.8725 30.6923 30.7744V30.4257C30.6923 29.2791 29.7598 28.3465 28.6131 28.3465C27.9235 28.3465 27.279 28.6957 26.8958 29.2561C26.4954 29.1991 26.0892 29.1671 25.6794 29.1671H24.5643C22.3772 29.1671 20.3444 30.3465 19.2597 32.2456L19.1432 32.4491L19.2597 32.6526C20.3448 34.5517 22.3772 35.7312 24.5643 35.7312H25.6794C26.0896 35.7312 26.4954 35.6992 26.8958 35.6421C27.279 36.2021 27.9235 36.5517 28.6131 36.5517C29.7594 36.5517 30.6923 35.6192 30.6923 34.4725V34.1238C30.8298 34.0257 30.9643 33.9236 31.0964 33.8173C31.9284 34.5234 32.9709 34.9111 34.0741 34.9111H35.1514L34.3608 33.725C34.1081 33.3451 33.9744 32.9041 33.9744 32.4487C33.9744 31.9933 34.1081 31.5519 34.3604 31.1732L35.1514 29.9872ZM28.6131 29.1666C29.2453 29.1666 29.7651 29.6368 29.8533 30.2452C29.2174 29.8936 28.5389 29.6237 27.8324 29.4419C28.0519 29.2684 28.3255 29.1666 28.6131 29.1666ZM24.5639 34.9102C24.4129 34.9102 24.2644 34.8942 24.1151 34.8815C24.5446 34.4483 24.8306 33.8846 24.9192 33.2692H25.359C26.0375 33.2692 26.5898 32.717 26.5898 32.0384C26.5898 31.3599 26.0375 30.8077 25.359 30.8077H24.1282V32.859C24.1282 33.6257 23.6987 34.3186 23.0271 34.6715C21.8291 34.3055 20.7776 33.5289 20.0942 32.4487C21.0587 30.9242 22.7502 29.9872 24.5639 29.9872H25.679C27.8431 29.9872 29.8981 30.8799 31.3717 32.4487C29.8976 34.0175 27.8431 34.9102 25.679 34.9102H24.5639ZM24.9487 32.4487V31.6282H25.359C25.585 31.6282 25.7692 31.812 25.7692 32.0384C25.7692 32.2649 25.585 32.4487 25.359 32.4487H24.9487ZM28.6131 35.7307C28.3255 35.7307 28.0519 35.629 27.8328 35.4559C28.5393 35.2741 29.2174 35.0042 29.8538 34.6526C29.7651 35.2606 29.2453 35.7307 28.6131 35.7307ZM33.6027 34.0606C32.9102 33.9757 32.2628 33.7 31.7167 33.2643C31.896 33.0887 32.07 32.9074 32.2349 32.715L32.4638 32.4483L32.2349 32.1816C32.0704 31.9896 31.896 31.8079 31.7167 31.6323C32.2628 31.197 32.9102 30.9213 33.6027 30.836C33.3085 31.3234 33.1539 31.8776 33.1539 32.4487C33.1539 33.0198 33.3085 33.574 33.6027 34.0606Z" fill="black"/>
<path d="M23.0176 31.3381L22.6923 31.6635L22.367 31.3381L21.7869 31.9182L22.1122 32.2436L21.7869 32.5689L22.367 33.149L22.6923 32.8237L23.0176 33.149L23.5977 32.5689L23.2724 32.2436L23.5977 31.9182L23.0176 31.3381Z" fill="black"/>
<path d="M28.2308 31.6282H27.4102V32.4487H28.2308V31.6282Z" fill="black"/>
<path d="M29.8718 32.4487H29.0513V33.2692H29.8718V32.4487Z" fill="black"/>
<path d="M20.3854 15.0759L19.896 15.2388L20.1553 16.017L20.6447 15.8542C21.256 15.6503 21.6667 15.0804 21.6667 14.4359C21.6667 14.0367 21.5112 13.6613 21.2289 13.3791L21.0279 13.1781C20.9106 13.0611 20.8461 12.9056 20.8461 12.7399C20.8461 12.4552 21.0394 12.2078 21.3155 12.1389L21.7212 12.0375C21.8172 12.481 22.0384 12.888 22.367 13.2166L22.6074 13.457L23.1875 12.8769L22.9471 12.6365C22.6505 12.3395 22.4872 11.9448 22.4872 11.5255V11L21.1161 11.3426C20.474 11.5034 20.0256 12.0777 20.0256 12.7399C20.0256 13.1247 20.1754 13.4862 20.4474 13.7582L20.6484 13.9592C20.776 14.0868 20.8461 14.2562 20.8461 14.4359C20.8461 14.7268 20.6607 14.9836 20.3854 15.0759Z" fill="black"/>
<path d="M14.3436 19.3666L14.6533 19.5988C14.9348 19.8097 15.1026 20.1453 15.1026 20.4969C15.1026 20.7192 15.0373 20.9346 14.9143 21.1196L14.351 21.9644L15.0337 22.4193L15.5969 21.5746C15.8103 21.255 15.9231 20.8821 15.9231 20.4969C15.9231 19.8885 15.6326 19.3071 15.1457 18.942L14.8359 18.7098C14.4892 18.4497 14.2821 18.0357 14.2821 17.6021C14.2821 17.232 14.4261 16.8841 14.6878 16.6228L14.9327 16.3779C15.4226 15.888 15.7438 15.2743 15.8665 14.6072C16.2837 14.8743 16.6053 15.28 16.7645 15.7576L17.5428 15.4983C17.2453 14.6056 16.5348 13.895 15.6421 13.5976L15.1026 13.4179V13.9869C15.1026 14.6708 14.8363 15.3141 14.3526 15.7978L14.1077 16.0427C13.6909 16.4591 13.4615 17.013 13.4615 17.6021C13.4615 18.2926 13.7914 18.9522 14.3436 19.3666Z" fill="black"/>
<path d="M25.0689 13.2162C25.3975 12.888 25.6187 12.4806 25.7147 12.0371L26.12 12.1385C26.3965 12.2078 26.5897 12.4548 26.5897 12.7399C26.5897 12.9056 26.5253 13.0611 26.4084 13.1781L26.2074 13.3791C25.9247 13.6613 25.7692 14.0367 25.7692 14.4359C25.7692 15.0804 26.1799 15.6498 26.7912 15.8542L27.2806 16.017L27.5399 15.2388L27.0509 15.0759C26.7752 14.9836 26.5897 14.7268 26.5897 14.4359C26.5897 14.2558 26.6599 14.0864 26.7871 13.9592L26.9881 13.7582C27.2605 13.4862 27.4103 13.1247 27.4103 12.7399C27.4103 12.0782 26.9618 11.5034 26.3194 11.3426L24.9487 11V11.5255C24.9487 11.9448 24.7854 12.3395 24.4888 12.6361L24.2484 12.8765L24.8285 13.4566L25.0689 13.2162Z" fill="black"/>
<path d="M31.5694 14.6072C31.6925 15.2743 32.0133 15.888 32.5032 16.3779L32.7481 16.6228C33.0099 16.8846 33.1539 17.232 33.1539 17.6021C33.1539 18.0357 32.9467 18.4497 32.6 18.7098L32.2903 18.9424C31.8033 19.3071 31.5128 19.8885 31.5128 20.4969C31.5128 20.8817 31.6257 21.2546 31.839 21.5746L32.4023 22.4193L33.0849 21.9644L32.5217 21.1196C32.3986 20.935 32.3333 20.7192 32.3333 20.4969C32.3333 20.1453 32.5011 19.8093 32.7826 19.5988L33.0923 19.3662C33.6445 18.9522 33.9744 18.2926 33.9744 17.6021C33.9744 17.013 33.745 16.4591 33.3282 16.0427L33.0833 15.7978C32.5996 15.3141 32.3333 14.6708 32.3333 13.9869V13.4179L31.7934 13.5976C30.9007 13.895 30.1902 14.6056 29.8927 15.4983L30.671 15.7576C30.8302 15.28 31.1522 14.8743 31.5694 14.6072Z" fill="black"/>
</g>
</g>
<defs>
<clipPath id="clip0_57_990">
<rect width="25.4359" height="32" fill="white" transform="translate(11 11)"/>
</clipPath>
</defs>
</svg>
