<svg width="48" height="48" viewBox="0 0 48 48" fill="none" xmlns="http://www.w3.org/2000/svg">
<mask id="mask0_57_978" style="mask-type:luminance" maskUnits="userSpaceOnUse" x="11" y="10" width="26" height="32">
<path d="M36.6 10H11V42H36.6V10Z" fill="white"/>
</mask>
<g mask="url(#mask0_57_978)">
<path d="M23.2603 28.9588C26.1779 28.9588 29.0015 27.878 31.1727 25.9332C31.3295 26.2216 31.584 26.456 31.9052 26.5888C32.4236 26.8032 32.9843 26.6964 33.3699 26.3108C33.6555 26.0256 33.8 25.6404 33.8 25.1656C33.8 23.75 32.9576 23.3416 32.5884 23.2512C33.4288 23.4192 34.1588 23.9768 34.5416 24.7432C34.8312 25.322 34.928 25.9656 34.8216 26.604L34.6056 27.8996L35.3947 28.0312L35.6108 26.7352C35.7452 25.9288 35.6228 25.1164 35.2572 24.3852C34.7648 23.4 33.8255 22.6828 32.7455 22.4668C32.5127 22.4204 32.2731 22.4796 32.0895 22.6304C31.9055 22.7808 31.8 23.0036 31.8 23.2412C31.8 23.5912 32.026 23.8948 32.3628 23.9972C32.7796 24.1236 33 24.5276 33 25.1656C33 25.424 32.936 25.614 32.8048 25.7452C32.5808 25.9692 32.3143 25.8924 32.2119 25.8496C32.0219 25.7708 31.8 25.5668 31.8 25.2512V25.1656C31.8 25.0036 31.702 24.8572 31.5524 24.7956C31.4024 24.7336 31.23 24.7688 31.1156 24.884C30.6048 25.3996 30.0467 25.8572 29.4539 26.258C29.9427 25.1776 30.2 24.0036 30.2 22.8C30.2 18.168 26.4316 14.4 21.8 14.4C20.0796 14.4 18.4044 14.9356 17 15.9168V11.2C17 10.9792 16.8212 10.8 16.6 10.8H13.4C13.1788 10.8 13 10.9792 13 11.2V27.6596L11.82 27.6004L11.78 28.3992L22.6708 28.9436C22.8676 28.954 23.0639 28.9588 23.2603 28.9588ZM29.3572 22H25.21C24.8792 22 24.61 21.7308 24.61 21.4C24.61 21.0692 24.8792 20.8 25.21 20.8H29.124C29.2308 21.1896 29.3136 21.5884 29.3572 22ZM27.3272 17.6H23.01C21.9072 17.6 21.01 16.7028 21.01 15.6C21.01 15.4788 21.0244 15.3592 21.046 15.2408C21.296 15.2156 21.5472 15.2 21.8 15.2C23.9784 15.2 25.9404 16.1264 27.3272 17.6ZM20.2272 15.3724C20.2212 15.4484 20.21 15.5236 20.21 15.6C20.21 17.144 21.4664 18.4 23.01 18.4H27.9852C28.3372 18.8936 28.6315 19.4292 28.8587 20H25.21C24.438 20 23.81 20.628 23.81 21.4C23.81 22.172 24.438 22.8 25.21 22.8H29.4C29.4 24.2936 28.9671 25.7388 28.1483 26.9796L28.1804 27.0008C26.502 27.8348 24.6211 28.2412 22.7103 28.1452L19.036 27.9616C19.0216 27.9092 19.01 27.856 19.01 27.8C19.01 27.4692 19.2792 27.2 19.61 27.2H24.81C25.8024 27.2 26.61 26.3924 26.61 25.4C26.61 24.4076 25.8024 23.6 24.81 23.6H17V22H17.81C18.4716 22 19.01 21.4616 19.01 20.8C19.01 20.1384 18.4716 19.6 17.81 19.6H17V16.922C17.9436 16.1508 19.0508 15.6232 20.2272 15.3724ZM17 20.4H17.81C18.0308 20.4 18.21 20.5796 18.21 20.8C18.21 21.0204 18.0308 21.2 17.81 21.2H17V20.4ZM17 24.4H24.81C25.3616 24.4 25.81 24.8488 25.81 25.4C25.81 25.9512 25.3616 26.4 24.81 26.4H19.61C18.838 26.4 18.21 27.028 18.21 27.8C18.21 27.8408 18.216 27.8804 18.2196 27.9204L17 27.8596V24.4ZM13.8 26H14.6V25.2H13.8V23.6H15.4V22.8H13.8V21.2H14.6V20.4H13.8V18.8H15.4V18H13.8V16.4H14.6V15.6H13.8V14H15.4V13.2H13.8V11.6H16.2V27.8196L13.8 27.6996V26Z" fill="black"/>
<path d="M35.3736 18.7623C34.5168 18.2615 32.8584 19.3375 32.3704 19.6791C32.264 19.7539 32.2004 19.8755 32.2 20.0055C32.1996 20.1355 32.2624 20.2579 32.3688 20.3331C32.6044 20.5003 33.6452 21.1999 34.5488 21.1999C34.746 21.1999 34.9368 21.1667 35.1112 21.0867C35.3968 20.9563 35.7528 20.6479 35.8236 19.9203C35.892 19.2207 35.6168 18.9043 35.3736 18.7623ZM35.0276 19.8423C34.986 20.2639 34.8304 20.3351 34.7792 20.3587C34.4764 20.4967 33.874 20.2819 33.3532 20.0015C34.0332 19.6075 34.7532 19.3263 34.9704 19.4531C35.0152 19.4795 35.0504 19.6099 35.0276 19.8423Z" fill="black"/>
<path d="M31.8668 14.8444C31.0412 15.1196 30.7688 16.5964 30.7052 17.0424C30.6876 17.1672 30.7296 17.2928 30.8184 17.382C30.8936 17.4576 30.9956 17.4992 31.1012 17.4992C31.12 17.4992 31.1388 17.498 31.158 17.4952C31.604 17.4316 33.0812 17.1596 33.356 16.3336C33.4412 16.0784 33.4456 15.6776 32.984 15.2164C32.522 14.7544 32.1212 14.7596 31.8668 14.8444ZM32.1376 15.6004C32.19 15.6004 32.2908 15.654 32.4184 15.7816C32.5624 15.9256 32.6116 16.0352 32.5968 16.08C32.5392 16.2528 32.1048 16.45 31.6168 16.5828C31.7488 16.0952 31.946 15.6608 32.12 15.6028C32.1252 15.6016 32.1308 15.6004 32.1376 15.6004Z" fill="black"/>
<path d="M32.3696 29.6801C31.3664 29.6801 30.8516 30.1125 30.3972 30.4937C29.9804 30.8437 29.6512 31.1201 28.9388 31.1201C28.2276 31.1201 27.8984 30.8437 27.482 30.4941C27.028 30.1125 26.5132 29.6805 25.5108 29.6805C24.5076 29.6805 23.9928 30.1129 23.5384 30.4941C23.122 30.8441 22.7928 31.1201 22.0812 31.1201C21.3696 31.1201 21.0408 30.8437 20.6244 30.4941C20.17 30.1125 19.6556 29.6805 18.6528 29.6805C17.6504 29.6805 17.136 30.1129 16.682 30.4941C16.2656 30.8441 15.9372 31.1201 15.2256 31.1201C14.5148 31.1201 14.186 30.8437 13.7696 30.4941C13.3172 30.1125 12.8028 29.6801 11.8 29.6801V30.4801C12.5112 30.4801 12.84 30.7565 13.2564 31.1061C13.7104 31.4877 14.2248 31.9197 15.2272 31.9197C16.23 31.9197 16.7444 31.4873 17.1984 31.1061C17.6148 30.7561 17.9432 30.4801 18.6544 30.4801C19.3656 30.4801 19.6948 30.7565 20.1112 31.1061C20.5656 31.4877 21.08 31.9197 22.0828 31.9197C23.0856 31.9197 23.6004 31.4873 24.0544 31.1061C24.4712 30.7561 24.8004 30.4797 25.5124 30.4797C26.2232 30.4797 26.5524 30.7561 26.9688 31.1057C27.4232 31.4873 27.9376 31.9193 28.9404 31.9193C29.9436 31.9193 30.4584 31.4869 30.9128 31.1057C31.3296 30.7557 31.6588 30.4793 32.3712 30.4793C33.0836 30.4793 33.4128 30.7557 33.8296 31.1057C34.282 31.4877 34.7968 31.9201 35.8 31.9201V31.1201C35.088 31.1201 34.7584 30.8437 34.3416 30.4937C33.8876 30.1125 33.3728 29.6801 32.3696 29.6801Z" fill="black"/>
<path d="M32.3696 32.4801C31.3664 32.4801 30.8516 32.9125 30.3972 33.2937C29.9804 33.6437 29.6512 33.9201 28.9388 33.9201C28.2276 33.9201 27.8984 33.6437 27.482 33.2941C27.028 32.9125 26.5132 32.4805 25.5108 32.4805C24.5076 32.4805 23.9928 32.9129 23.5384 33.2941C23.122 33.6441 22.7928 33.9201 22.0812 33.9201C21.3696 33.9201 21.0408 33.6437 20.6244 33.2941C20.17 32.9125 19.6556 32.4805 18.6528 32.4805C17.6504 32.4805 17.136 32.9129 16.682 33.2941C16.2656 33.6441 15.9372 33.9201 15.2256 33.9201C14.5148 33.9201 14.186 33.6437 13.7696 33.2941C13.3172 32.9125 12.8028 32.4801 11.8 32.4801V33.2801C12.5112 33.2801 12.84 33.5565 13.2564 33.9061C13.7104 34.2877 14.2248 34.7197 15.2272 34.7197C16.23 34.7197 16.7444 34.2873 17.1984 33.9061C17.6148 33.5561 17.9432 33.2801 18.6544 33.2801C19.3656 33.2801 19.6948 33.5565 20.1112 33.9061C20.5656 34.2877 21.08 34.7197 22.0828 34.7197C23.0856 34.7197 23.6004 34.2873 24.0544 33.9061C24.4712 33.5561 24.8004 33.2797 25.5124 33.2797C26.2232 33.2797 26.5524 33.5561 26.9688 33.9057C27.4232 34.2873 27.9376 34.7193 28.9404 34.7193C29.9436 34.7193 30.4584 34.2869 30.9128 33.9057C31.3296 33.5557 31.6588 33.2793 32.3712 33.2793C33.0836 33.2793 33.4128 33.5557 33.8296 33.9057C34.282 34.2877 34.7968 34.7201 35.8 34.7201V33.9201C35.088 33.9201 34.7584 33.6437 34.3416 33.2937C33.8876 32.9125 33.3728 32.4801 32.3696 32.4801Z" fill="black"/>
</g>
</svg>
